<svg width="48" height="48" viewBox="0 0 48 48" fill="none" xmlns="http://www.w3.org/2000/svg">
<path d="M43.5002 35.6064C45.2033 32.4748 46.171 28.8853 46.171 25.0699C46.171 12.8724 36.283 2.98438 24.0855 2.98438C11.888 2.98438 2 12.8724 2 25.0699C2 28.8854 2.9677 32.4749 4.67079 35.6065L43.5002 35.6064Z" fill="#49B1F7"/>
<path d="M20.8748 32.7265C22.9031 33.7602 25.3043 33.7437 27.3006 32.7265C28.7181 32.0041 30.3513 31.0292 31.815 29.4839C31.2252 29.287 30.6227 29.1165 30.0026 28.9734C29.0875 28.0583 28.8555 26.3233 28.8137 25.1094C28.3361 25.6657 27.8349 26.131 27.356 26.5028C26.4228 27.2275 25.2714 27.6211 24.0855 27.6211C22.8995 27.6211 21.748 27.2275 20.8148 26.5028C20.3359 26.1309 19.8346 25.6656 19.357 25.1094C19.3152 26.3233 19.0833 28.0583 18.168 28.9734C17.5493 29.1162 16.9479 29.2864 16.3594 29.4827C17.8233 31.0288 19.457 32.004 20.8748 32.7265Z" fill="#FFAA7B"/>
<path d="M19.357 25.1094C19.3152 26.3233 19.0833 28.0583 18.168 28.9734C17.5493 29.1162 16.9479 29.2864 16.3594 29.4827C17.2293 30.4014 18.1588 31.1174 19.0677 31.6996C20.1177 30.8839 21.4504 30.8937 21.4504 30.8937C23.7134 30.8937 24.0855 27.6211 24.0855 27.6211C22.8995 27.6211 21.748 27.2275 20.8148 26.5028C20.3359 26.131 19.8346 25.6657 19.357 25.1094Z" fill="#FC9460"/>
<path d="M25.6455 31.7891L24.5508 33.512L26.5366 32.979L25.6455 31.7891Z" fill="#D3DCFB"/>
<path d="M22.524 31.7891L23.6186 33.512L21.6328 32.979L22.524 31.7891Z" fill="#D3DCFB"/>
<path d="M40.3927 32.5603C40.0834 32.4143 39.752 32.2893 39.3995 32.1852L33.5997 30.1653C32.9101 29.8607 32.2083 29.5943 31.4861 29.3672C30.0782 30.888 28.4931 31.8351 27.122 32.5338C25.235 33.4954 22.9651 33.5108 21.0479 32.5338C20.4519 32.2301 19.8156 31.8793 19.1709 31.455C18.4446 31.9426 17.8005 32.7664 17.6981 34.1613C17.4309 34.228 16.6793 34.4429 15.9183 34.9081C14.6736 35.6689 14.0156 36.7371 14.0156 37.9971V44.7246C17.0351 46.2741 20.4578 47.1487 24.0849 47.1487C28.9339 47.1487 33.4178 45.5859 37.0606 42.9367C37.0606 41.2584 37.0606 39.7797 37.0606 38.8151C37.0606 35.9432 39.6296 33.9852 41.155 32.9847C40.9161 32.8295 40.6623 32.6875 40.3927 32.5603Z" fill="#88CE65"/>
<path d="M14.1518 44.7926C14.1518 43.5224 14.1518 40.3203 14.1518 37.997C14.1518 35.0369 17.8276 34.27 17.8276 34.27C17.9043 32.8332 18.5588 32.0077 19.2904 31.5316C18.4137 30.9658 17.5181 30.2676 16.6845 29.3672C15.9624 29.5943 15.2605 29.8607 14.5709 30.1653L8.77118 32.1852C8.41881 32.2892 8.08735 32.4143 7.77797 32.5603C7.50835 32.6875 7.2546 32.8295 7.01562 32.9847C8.54105 33.9852 11.11 35.9432 11.11 38.8151V42.9367C12.0685 43.6337 13.0857 44.2547 14.1518 44.7926Z" fill="#6FAF46"/>
<path d="M28.3598 31.7684C27.9354 32.0211 27.5195 32.2449 27.1216 32.4477C25.2346 33.4093 22.9649 33.4247 21.0475 32.4477C20.6482 32.2441 20.2306 32.0194 19.8047 31.7656V34.0971C19.9285 34.1622 20.0515 34.226 20.1729 34.2879C22.6425 35.5464 25.566 35.5264 27.9965 34.2879C28.1163 34.2268 28.2376 34.1638 28.3598 34.0997V31.7684Z" fill="#B4D667"/>
<path d="M29.3311 26.8774C29.2274 26.8202 29.0985 26.8801 29.0748 26.9962C28.9205 27.7517 28.2513 30.1314 25.7661 31.5438C25.5214 31.6828 25.4628 32.0094 25.6479 32.2215L28.1592 35.0977C28.6806 35.6982 29.6405 35.5902 30.0169 34.8896C30.6531 33.7051 31.5395 31.9022 32.1956 29.9639C32.313 29.6168 32.2295 29.2332 31.9819 28.963C31.2181 28.1297 30.3231 27.425 29.3311 26.8774Z" fill="#DEEEFF"/>
<path d="M22.4005 31.5445C21.9825 31.307 21.617 31.0416 21.2954 30.7617C20.6295 30.8072 17.9937 31.1715 17.7109 34.0477C17.8654 34.3532 18.0136 34.6367 18.1498 34.8903C18.5261 35.5909 19.4861 35.6989 20.0075 35.0985L22.5187 32.2222C22.7038 32.0102 22.6453 31.6836 22.4005 31.5445Z" fill="#DEEEFF"/>
<path d="M19.095 26.9962C19.0713 26.8801 18.9423 26.8201 18.8386 26.8775C17.8467 27.425 16.9517 28.1298 16.188 28.963C15.9404 29.233 15.8569 29.6168 15.9743 29.9638C16.5255 31.5924 17.2389 33.1238 17.8303 34.2746C18.0128 30.8633 21.451 30.8893 21.451 30.8893C19.7396 29.4869 19.2273 27.6442 19.095 26.9962Z" fill="#D3DCFB"/>
<path d="M15.8723 15.1955H32.3931C32.4224 14.0052 32.6209 10.8545 33.865 8.61005C34.038 8.29789 34.0689 7.92703 33.9484 7.59106C33.4969 6.33247 32.1486 3.39016 29.2079 2.60537C29.0512 2.56354 29.0098 2.3609 29.1373 2.26075L29.578 1.9145C29.7778 1.75747 29.7011 1.43854 29.4515 1.39049C27.2819 0.972044 20.0763 -0.0292778 17.838 4.57322C17.7044 4.84789 17.4526 5.04566 17.1569 5.12219C16.5056 5.29076 15.3342 5.79882 14.5707 7.32126C14.4213 7.61901 14.3959 7.96435 14.5029 8.27977C14.8739 9.37331 15.778 12.3097 15.8723 15.1955Z" fill="#945230"/>
<path d="M23.2646 7.92284C20.6259 3.90159 25.2414 1.00391 25.2414 1.00391C22.4423 1.04014 19.2087 1.75697 17.838 4.57551C17.7044 4.85018 17.4526 5.04796 17.1569 5.12449C16.5056 5.29306 15.3342 5.80111 14.5707 7.32356C14.4213 7.6213 14.3959 7.96665 14.5029 8.28206C14.8739 9.3756 15.778 12.312 15.8723 15.1978H19.7178C22.1517 13.2263 24.8325 10.3124 23.2646 7.92284Z" fill="#753616"/>
<path d="M33.0343 14.7155C32.6644 14.3766 31.8375 14.5484 31.5189 14.7559C31.5887 15.1905 31.5927 15.6351 31.5324 16.0741L31.1565 18.8119C31.1565 19.0326 31.1495 19.2491 31.1367 19.4619C32.0534 19.7383 32.5989 18.9154 32.6756 18.3507C32.7086 18.1075 32.7626 17.8679 32.8375 17.6341C33.0814 16.8727 33.961 15.5648 33.0343 14.7155Z" fill="#FFAA7B"/>
<path d="M15.1377 14.7155C15.5076 14.3766 16.3345 14.5484 16.653 14.7559C16.5833 15.1905 16.5793 15.6351 16.6396 16.0741L17.0155 18.8119C17.0155 19.0326 17.0224 19.2491 17.0352 19.4619C16.1186 19.7383 15.5731 18.9154 15.4964 18.3507C15.4634 18.1075 15.4094 17.8679 15.3345 17.6341C15.0907 16.8727 14.211 15.5648 15.1377 14.7155Z" fill="#FC9460"/>
<path d="M31.3818 13.912C31.2972 13.6913 31.1905 13.4677 31.0561 13.2569C30.8285 12.8998 30.7284 12.4773 30.7589 12.0561C30.8466 10.8448 30.7996 8.47553 29.2094 7.75996C27.8584 7.15203 26.2011 7.50404 25.1442 7.85542C24.4832 8.07529 23.7691 8.08277 23.1041 7.87913C21.8999 8.80329 21.8716 10.8841 21.953 11.9921C21.9841 12.4156 21.8799 12.8391 21.651 13.1983C21.5192 13.4052 21.4136 13.6243 21.3292 13.8411C21.0554 14.5444 20.9756 15.3072 21.0782 16.0541L21.4591 18.8289C21.4591 22.8179 23.5885 25.5293 25.3998 26.9359C25.6671 27.1435 25.9532 27.3221 26.2518 27.4745C26.6432 27.301 27.0145 27.0805 27.3563 26.815C29.144 25.4269 31.2455 22.7509 31.2455 18.8139L31.6214 16.076C31.7218 15.3461 31.6458 14.6007 31.3818 13.912Z" fill="#FFC7AB"/>
<path d="M25.4127 26.815C23.625 25.4269 21.5235 22.7509 21.5235 18.8139L21.1475 16.0755C21.0463 15.3384 21.1251 14.5855 21.3953 13.8914C21.4786 13.6774 21.5827 13.4612 21.713 13.257C21.9389 12.9025 22.0418 12.4845 22.0111 12.0665C21.9282 10.9383 21.9604 8.78806 23.2636 7.92393C23.1843 7.90392 23.1056 7.88139 23.0277 7.85542C21.9708 7.50404 20.3135 7.15203 18.9625 7.75996C17.3677 8.47751 17.325 10.8583 17.4137 12.0665C17.4445 12.4845 17.3415 12.9025 17.1156 13.257C16.9855 13.4612 16.8813 13.6774 16.798 13.8914C16.5278 14.5855 16.449 15.3384 16.5503 16.0755L16.9263 18.8139C16.9263 22.7509 19.0279 25.4268 20.8154 26.815C21.7485 27.5396 22.9 27.9332 24.086 27.9332C24.8869 27.9332 25.6718 27.753 26.3846 27.4132C26.0419 27.25 25.7157 27.0503 25.4127 26.815Z" fill="#FFAA7B"/>
<path d="M41.0645 32.9297C39.552 33.9119 36.8828 35.8903 36.8828 38.8173V43.0686C39.6174 41.1215 41.8895 38.5669 43.5021 35.6018C42.9364 34.5533 42.1507 33.6089 41.0645 32.9297Z" fill="#B4D667"/>
<path d="M7.10947 32.9297C6.02332 33.6089 5.23753 34.5534 4.67188 35.6019C6.28447 38.567 8.55655 41.1215 11.2912 43.0686C11.2912 41.3365 11.2912 39.8067 11.2912 38.8173C11.2912 35.8903 8.622 33.9119 7.10947 32.9297Z" fill="#88CE65"/>
<path d="M39.1835 8.94922C37.0868 10.4992 34.4779 13.1121 35.5839 16.3858C37.2966 21.4559 29.5442 24.6532 38.1981 28.328C41.6581 29.7973 43.6686 31.3303 44.8367 32.6415C45.6996 30.2787 46.1711 27.7277 46.1711 25.0663C46.171 18.7083 43.4834 12.9788 39.1835 8.94922Z" fill="#73C3F9"/>
<path d="M8.98762 8.94922C11.0844 10.4992 13.6932 13.1121 12.5873 16.3858C10.8745 21.4559 18.6269 24.6532 9.97308 28.328C6.51298 29.7973 4.50249 31.3303 3.3344 32.6415C2.47154 30.2787 2 27.7277 2 25.0663C2.00009 18.7083 4.68774 12.9788 8.98762 8.94922Z" fill="#73C3F9"/>
<path d="M29.1504 21.9655C28.9414 20.719 28.042 19.4708 26.8413 19.1985L25.006 18.6594C24.687 18.5656 24.3675 18.7293 24.2391 19.0072C24.2156 19.058 24.1447 19.058 24.1213 19.0072C23.9928 18.7293 23.6733 18.5657 23.3543 18.6594L21.5191 19.1985C21.4573 19.2125 21.3966 19.2298 21.3365 19.2488C21.1596 19.5832 20.8817 20.2502 21.0716 20.8747C21.1783 21.2259 21.4181 21.5079 21.7816 21.7184C22.1035 21.5491 22.4496 21.4207 22.8135 21.3402L23.1414 21.2679C23.6192 21.1624 23.9887 20.696 24.1241 20.199C24.1397 20.142 24.2208 20.142 24.2364 20.199C24.3719 20.696 24.7413 21.1624 25.219 21.2679L25.5469 21.3402C26.4891 21.5482 27.3146 22.0755 27.8986 22.8124C27.7777 23.3498 27.3986 24.1665 26.2239 24.5816C25.4357 24.8601 24.5755 24.3644 24.4745 23.5439C24.4733 23.5333 24.472 23.5226 24.4708 23.5118C24.4542 23.3588 24.3261 23.2412 24.1702 23.2412C24.0143 23.2412 23.8862 23.3588 23.8696 23.5118C23.8684 23.5226 23.8671 23.5334 23.8659 23.5439C23.8094 24.003 23.515 24.3602 23.1287 24.5372C23.0444 24.9697 22.9368 25.9599 23.4442 26.8966C23.7041 27.3764 24.0887 27.7712 24.5917 28.0788C25.0911 28.0198 25.5825 27.8734 26.042 27.6395C27.8787 26.7045 30.3204 25.0798 31.1014 20.9006C31.1657 20.557 31.1983 20.2075 31.1983 19.8579C30.901 20.5914 30.283 21.4742 29.1504 21.9655Z" fill="#945230"/>
<path d="M24.8024 28.048C22.8344 26.9605 23.1743 24.9185 23.2822 24.4512C22.9503 24.6614 22.5224 24.727 22.1129 24.5824C21.0284 24.1992 20.5619 23.4734 20.3613 22.9413C20.7661 22.3874 21.3029 21.9416 21.9232 21.6458C20.606 20.9576 21.3017 19.5655 21.5159 19.1992L21.5154 19.1993C20.291 19.477 19.3794 20.7694 19.1941 22.04C17.9414 21.5676 17.2893 20.6305 16.9766 19.8585V19.8589C16.9766 20.208 17.0091 20.557 17.0732 20.9002C17.8528 25.0786 20.2828 26.703 22.1197 27.6392C22.9561 28.0654 23.8982 28.2013 24.8024 28.048Z" fill="#753616"/>
</svg>
