<svg width="48" height="48" viewBox="0 0 48 48" fill="none" xmlns="http://www.w3.org/2000/svg">
<path d="M15.8645 16.969H32.3853C32.4146 15.7786 32.6131 12.6279 33.8572 10.3835C34.0302 10.0713 34.0611 9.70047 33.9406 9.3645C33.4891 8.10591 32.1407 5.1636 29.2001 4.3788C29.0434 4.33698 29.002 4.13433 29.1295 4.03418L29.5702 3.68794C29.77 3.53091 29.6932 3.21198 29.4437 3.16393C27.2741 2.74548 20.0684 1.74416 17.8302 6.34665C17.6966 6.62132 17.4448 6.8191 17.1491 6.89563C16.4978 7.0642 15.3264 7.57225 14.5629 9.0947C14.4135 9.39245 14.3881 9.73779 14.4951 10.0532C14.8661 11.1467 15.7702 14.0831 15.8645 16.969Z" fill="#945230"/>
<path d="M23.2568 9.69627C20.6181 5.67503 25.2336 2.77734 25.2336 2.77734C22.4345 2.81358 19.2009 3.53041 17.8302 6.34895C17.6966 6.62362 17.4448 6.82139 17.1491 6.89793C16.4978 7.0665 15.3264 7.57455 14.5629 9.097C14.4135 9.39474 14.3881 9.74008 14.4951 10.0555C14.8661 11.149 15.7702 14.0854 15.8645 16.9713H19.71C22.1439 14.9997 24.8247 12.0858 23.2568 9.69627Z" fill="#753616"/>
<path d="M33.0264 16.4889C32.6566 16.15 31.8297 16.3218 31.5111 16.5293C31.5809 16.9639 31.5849 17.4085 31.5245 17.8475L31.1486 20.5854C31.1486 20.806 31.1417 21.0226 31.1289 21.2353C32.0456 21.5118 32.591 20.6889 32.6678 20.1241C32.7008 19.881 32.7547 19.6414 32.8297 19.4075C33.0736 18.6462 33.9532 17.3382 33.0264 16.4889Z" fill="#FFAA7B"/>
<path d="M15.1338 16.4889C15.5037 16.15 16.3306 16.3218 16.6491 16.5293C16.5794 16.9639 16.5754 17.4085 16.6357 17.8475L17.0116 20.5854C17.0116 20.806 17.0185 21.0226 17.0313 21.2353C16.1147 21.5118 15.5692 20.6889 15.4925 20.1241C15.4595 19.881 15.4055 19.6414 15.3306 19.4075C15.0868 18.6462 14.2071 17.3382 15.1338 16.4889Z" fill="#FC9460"/>
<path d="M31.374 15.6855C31.2894 15.4647 31.1827 15.2412 31.0483 15.0303C30.8207 14.6732 30.7206 14.2507 30.7511 13.8296C30.8388 12.6182 30.7918 10.249 29.2015 9.5334C27.8506 8.92547 26.1932 9.27748 25.1364 9.62886C24.4754 9.84872 23.7612 9.85621 23.0963 9.65257C21.8921 10.5767 21.8638 12.6575 21.9452 13.7655C21.9763 14.189 21.8721 14.6126 21.6432 14.9717C21.5113 15.1787 21.4058 15.3977 21.3214 15.6145C21.0476 16.3178 20.9678 17.0806 21.0704 17.8276L21.4513 20.6023C21.4513 24.5914 23.5807 27.3027 25.392 28.7093C25.6593 28.9169 25.9454 29.0955 26.244 29.2479C26.6354 29.0744 27.0067 28.8539 27.3485 28.5885C29.1362 27.2003 31.2377 24.5243 31.2377 20.5873L31.6136 17.8495C31.714 17.1196 31.638 16.3742 31.374 15.6855Z" fill="#FFC7AB"/>
<path d="M25.4049 28.5885C23.6172 27.2003 21.5157 24.5243 21.5157 20.5873L21.1397 17.8489C21.0385 17.1118 21.1173 16.3589 21.3875 15.6648C21.4708 15.4508 21.5749 15.2347 21.7052 15.0304C21.9311 14.6759 22.0339 14.2579 22.0033 13.8399C21.9204 12.7117 21.9526 10.5615 23.2558 9.69737C23.1765 9.67736 23.0978 9.65482 23.0198 9.62886C21.963 9.27748 20.3057 8.92547 18.9547 9.5334C17.3599 10.2509 17.3171 12.6317 17.4059 13.8399C17.4367 14.2579 17.3337 14.6759 17.1078 15.0304C16.9777 15.2347 16.8735 15.4508 16.7902 15.6648C16.52 16.3589 16.4412 17.1118 16.5424 17.8489L16.9184 20.5873C16.9184 24.5243 19.0201 27.2002 20.8076 28.5885C21.7407 29.313 22.8922 29.7066 24.0781 29.7066C24.8791 29.7066 25.664 29.5264 26.3768 29.1866C26.0341 29.0235 25.7079 28.8237 25.4049 28.5885Z" fill="#FFAA7B"/>
<g clipPath="url(#clip0_707_45726)">
<path d="M42.5087 37.2399C44.8175 33.7502 46.1632 29.5675 46.1632 25.0699C46.1632 12.8724 36.2752 2.98438 24.0777 2.98438C11.8802 2.98438 1.99219 12.8724 1.99219 25.0699C1.99219 29.5675 3.33786 33.7502 5.64681 37.2399H42.5087Z" fill="#FF71D7"/>
<path d="M20.87 3.38775C20.8205 4.74947 21.4178 6.06233 22.6454 7.29C26.5236 11.1683 29.8291 21.7856 29.8649 21.9008C29.881 21.9446 30.2743 22.9779 31.3534 23.3735C32.035 23.6236 32.8253 23.5593 33.7088 23.184C33.9043 22.5542 34.2162 21.8474 34.6823 21.0408C38.8449 13.8365 33.8106 10.9902 32.1876 6.05863C31.4775 3.90103 29.848 2.63603 28.2394 1.89559C26.0888 0.905716 23.6539 0.736786 21.4057 1.38691C21.1215 1.95148 20.8976 2.62864 20.87 3.38775Z" fill="#56415E"/>
<path d="M33.4359 34.2936C38.0602 28.2107 32.0027 28.1768 33.7767 22.9811C30.917 24.2816 30.0146 21.846 30.0146 21.846C30.0146 21.846 26.7101 11.1296 22.7586 7.17812C20.4517 4.87124 20.8711 2.71977 21.6196 1.32812C21.0804 1.471 20.5507 1.65977 20.0374 1.89603C18.4289 2.63648 16.7994 3.90147 16.0894 6.05907C14.4663 10.9907 9.43203 13.8368 13.5946 21.0412C17.7572 28.2455 9.70318 27.534 14.8419 34.2937H24.1389H33.4359V34.2936Z" fill="#45304C"/>
<path d="M15.4686 17.6902C15.7017 17.971 16.0869 18.1816 16.7239 18.1718C16.7052 18.0929 16.6862 18.0154 16.6681 17.9352C16.6681 17.9352 16.4109 16.3055 16.4987 14.7461C15.8987 15.4297 15.417 16.2522 15.4686 17.6902Z" fill="#FC9460"/>
<path d="M31.901 14.7461C31.9888 16.3055 31.7316 17.9352 31.7316 17.9352C31.7135 18.0154 31.6944 18.093 31.6758 18.1718C32.3127 18.1816 32.698 17.971 32.931 17.6902C32.9826 16.2523 32.501 15.4298 31.901 14.7461Z" fill="#FFAA7B"/>
<path d="M21.9784 31.8113C22.3552 32.0607 22.4417 32.6109 22.0868 32.9744C22.0624 33.0125 21.8928 33.137 22.0154 33.2533C25.4231 36.4837 22.7275 36.4486 26.2048 33.1925C26.3636 33.0439 26.081 32.9649 25.9893 32.6342C25.8473 32.1191 26.2894 31.8197 26.297 31.8105C27.6109 30.9407 28.5047 29.7236 29.0266 28.2632C28.2927 27.6934 27.8157 27.0407 27.8157 26.3056C27.8157 25.7861 27.8157 25.9418 27.8157 25.6055C26.9101 26.4151 25.357 27.4466 24.078 27.4776C22.7989 27.4466 21.2459 26.4151 20.3404 25.6055V26.3056C20.3404 27.0092 19.9035 27.6375 19.2227 28.1897C19.7283 29.6903 20.6772 30.95 21.9784 31.8113Z" fill="#FFAA7B"/>
<path d="M24.131 27.4751C24.1133 27.4759 24.0956 27.4772 24.078 27.4776C22.7989 27.4466 21.2459 26.4151 20.3404 25.6055V26.3056C20.3404 27.0092 19.9035 27.6375 19.2227 28.1897C19.7231 29.675 20.6586 30.9238 21.9395 31.7843C21.9773 31.7575 22.0151 31.7291 22.053 31.6985C23.7456 30.3294 24.0712 28.334 24.131 27.4751Z" fill="#FC9460"/>
<path d="M27.1651 34.0922L26.2115 33C25.7519 33.4222 25.099 34.0796 24.5039 34.884C25.7136 34.8023 26.6411 34.3895 27.1651 34.0922Z" fill="#D3DCFB"/>
<path d="M23.6507 34.8827C23.0558 34.0788 22.4035 33.4221 21.9441 33L21.0234 34.0545C21.5004 34.3541 22.4029 34.7968 23.6507 34.8827Z" fill="#D3DCFB"/>
<path d="M41.713 34.8712C40.3395 32.1243 37.9288 31.3572 36.8305 31.1463C36.8305 31.1463 34.4569 30.713 32.1457 29.8594C32.179 30.0106 32.1722 30.1699 32.1211 30.3208C31.4666 32.2547 30.58 34.0555 29.9515 35.2258C29.622 35.8395 28.7883 35.9365 28.3261 35.4204C27.585 35.8944 26.0541 36.6805 24.0534 36.6805C21.9947 36.6805 20.5269 35.8479 19.8661 35.3815L19.8422 35.4089C19.3822 35.9388 18.5377 35.8443 18.2055 35.2258C17.9757 34.7979 17.7113 34.2852 17.4364 33.7131C17.431 33.7547 17.4247 33.7953 17.4205 33.838C17.1095 33.9324 16.0578 34.2766 14.9906 34.9144C13.3204 35.9126 12.4375 37.1544 12.4375 38.5056V43.8366C15.8172 45.9376 19.8057 47.1517 24.0784 47.1517C31.7782 47.1517 38.5565 43.2104 42.5093 37.2361C42.3021 36.3263 42.0396 35.5245 41.713 34.8712Z" fill="#88CE65"/>
<path d="M12.5735 38.5056C12.5735 35.3238 17.5479 33.9417 17.5479 33.9417V33.9416C17.0401 32.9028 16.4841 31.6431 16.0367 30.3208C15.9855 30.17 15.9787 30.0107 16.012 29.8594C13.7008 30.713 11.3273 31.1463 11.3273 31.1463C10.2289 31.3572 7.8183 32.1242 6.44477 34.8712C6.11818 35.5245 5.85568 36.3263 5.64844 37.2361C7.43708 39.9395 9.80427 42.2264 12.5736 43.9204C12.5735 42.3954 12.5735 40.2797 12.5735 38.5056Z" fill="#6FAF46"/>
<path d="M31.9674 14.8254C31.0465 13.7416 29.7997 13.0392 29.7997 10.9116C29.7997 5.5159 24.5279 7.44453 24.5279 7.44453C24.3161 7.52575 24.083 7.52575 23.8713 7.44453C23.8713 7.44453 23.2909 7.23242 22.5156 7.14571C22.5261 7.15625 22.5358 7.1668 22.5463 7.17744C22.5463 7.17744 18.2603 19.8704 26.571 26.6779C26.602 26.7033 26.6312 26.7285 26.6613 26.7539C27.8841 25.9941 28.8927 24.9651 29.6169 23.7256C30.5539 22.1221 31.2853 20.1788 31.7913 17.9459C31.9073 17.2081 32.0273 15.9814 31.9674 14.8254Z" fill="#FFC7AB"/>
<path d="M18.7839 23.7256C19.7354 25.3538 21.1763 26.6203 22.9509 27.388C23.7457 27.7318 24.657 27.7318 25.4517 27.388C25.9202 27.1854 26.3646 26.947 26.7837 26.6773C18.4739 19.8697 22.7597 7.17742 22.7597 7.17742C21.2128 6.94458 18.6012 7.11378 18.6012 10.9116C18.6012 13.0368 17.3571 13.74 16.4366 14.8217C16.3714 15.9973 16.489 17.2431 16.6106 17.95C17.1155 20.1784 17.8468 22.1215 18.7839 23.7256Z" fill="#FFAA7B"/>
<path d="M19.3789 35.1772C19.3789 35.1772 21.1138 36.8205 24.0512 36.8205C26.9885 36.8205 28.904 35.1772 28.904 35.1772L27.559 33.6797C27.559 33.6797 26.1843 34.7689 24.0763 34.7689C21.9683 34.7689 20.7231 33.6797 20.7231 33.6797L19.3789 35.1772Z" fill="#B4D667"/>
<path d="M22.0534 31.6994C21.5084 31.3385 21.063 30.9309 20.6986 30.5117C20.1941 30.604 17.7296 31.1874 17.4297 33.7675C17.7057 34.3423 17.972 34.8588 18.2046 35.292C18.5809 35.9926 19.5409 36.1007 20.0623 35.5001L22.2294 33.0179C22.5809 32.6154 22.4989 31.9943 22.0534 31.6994Z" fill="#DEEEFF"/>
<path d="M20.8041 30.6305C20.0033 29.7527 19.5711 28.8088 19.3436 28.1273C19.1785 27.6327 18.5907 27.4352 18.1565 27.7237C17.4545 28.1902 16.8114 28.7401 16.2412 29.3616C15.9926 29.6327 15.907 30.017 16.0249 30.3655C16.4671 31.6719 17.0136 32.9157 17.5179 33.9512C17.5359 33.9459 17.5459 33.9431 17.5459 33.9431C17.7728 31.0053 20.804 30.6305 20.8041 30.6305Z" fill="#D3DCFB"/>
<path d="M32.034 29.3617C31.4638 28.7401 30.8206 28.1902 30.1187 27.7237C29.6845 27.4352 29.0967 27.6327 28.9317 28.1272C28.6064 29.1014 27.8642 30.612 26.2228 31.6986C25.7773 31.9935 25.6953 32.6146 26.0467 33.0171L28.2138 35.4993C28.7352 36.0999 29.6953 35.9918 30.0715 35.2912C30.7078 34.1067 31.5942 32.3039 32.2502 30.3656C32.3681 30.0172 32.2826 29.6327 32.034 29.3617Z" fill="#DEEEFF"/>
<path d="M10.0779 22.5766C8.21484 18.6703 9.05625 15.4252 10.2581 12.2592C10.8252 10.7654 10.322 9.39288 9.63227 8.35938C4.95279 12.4091 1.99219 18.3918 1.99219 25.066C1.99219 27.7544 2.47338 30.33 3.35328 32.7127C4.05775 31.5237 5.69126 30.4818 7.49378 29.8591C9.89757 29.0288 11.9408 26.4828 10.0779 22.5766Z" fill="#FF8CDF"/>
<path d="M38.0761 22.5766C39.9391 18.6703 39.0977 15.4252 37.8958 12.2592C37.3287 10.7654 37.832 9.39288 38.5217 8.35938C43.2011 12.4091 46.1617 18.3918 46.1617 25.066C46.1617 27.7544 45.6806 30.33 44.8008 32.7127C44.0963 31.5237 42.4627 30.4818 40.6602 29.8591C38.2564 29.0288 36.2132 26.4828 38.0761 22.5766Z" fill="#FF8CDF"/>
<path d="M40.446 39.8885C40.009 38.082 38.8947 37.0387 37.9935 36.4689C37.43 36.1127 36.6953 36.5136 36.6953 37.1803V43.1919C38.0676 42.2345 39.3257 41.1251 40.446 39.8885Z" fill="#6FAF46"/>
</g>
<defs>
<clipPath id="clip0_707_45726">
<rect width="46.1538" height="46.1538" fill="white" transform="translate(1 1)"/>
</clipPath>
</defs>
</svg>
