<svg width="370" height="70" viewBox="0 0 370 70" fill="none" xmlns="http://www.w3.org/2000/svg">
<rect x="-16" width="402" height="70" fill="#E15F60"/>
<g clipPath="url(#clip0_651_59017)">
<rect x="-51.0156" y="73.4297" width="115.16" height="11.7456" transform="rotate(-45 -51.0156 73.4297)" fill="#DD5757"/>
<rect x="-12.2812" y="73.4297" width="115.16" height="11.7456" transform="rotate(-45 -12.2812 73.4297)" fill="#DD5757"/>
<rect x="26.4531" y="73.4297" width="115.16" height="11.7456" transform="rotate(-45 26.4531 73.4297)" fill="#DD5757"/>
<rect x="65.1914" y="73.4297" width="115.16" height="11.7456" transform="rotate(-45 65.1914 73.4297)" fill="#DD5757"/>
<rect x="103.926" y="73.4297" width="115.16" height="11.7456" transform="rotate(-45 103.926 73.4297)" fill="#DD5757"/>
<rect x="142.66" y="73.4297" width="115.16" height="11.7456" transform="rotate(-45 142.66 73.4297)" fill="#DD5757"/>
<rect x="181.398" y="73.4297" width="115.16" height="11.7456" transform="rotate(-45 181.398 73.4297)" fill="#DD5757"/>
<rect x="220.133" y="73.4297" width="115.16" height="11.7456" transform="rotate(-45 220.133 73.4297)" fill="#DD5757"/>
<rect x="297.602" y="73.4297" width="115.16" height="11.7456" transform="rotate(-45 297.602 73.4297)" fill="#DD5757"/>
<rect x="258.867" y="73.4297" width="115.16" height="11.7456" transform="rotate(-45 258.867 73.4297)" fill="#DD5757"/>
<rect x="336.336" y="73.4297" width="115.16" height="11.7456" transform="rotate(-45 336.336 73.4297)" fill="#DD5757"/>
</g>
<defs>
<clipPath id="clip0_651_59017">
<rect width="477" height="78" fill="white" transform="translate(-51 -8)"/>
</clipPath>
</defs>
</svg>
