<svg width="64" height="75" viewBox="0 0 64 75" fill="none" xmlns="http://www.w3.org/2000/svg">
<path d="M56.3905 21.0331C55.6691 28.0357 54.9223 35.0383 54.2516 42.0482C54.1139 43.4734 54.1247 44.906 53.8891 46.3348C53.7513 47.1783 53.4686 47.4765 52.6529 47.4583C49.2415 47.3783 47.5 47.5 44.5 49.5C44.3804 49.6018 44.5 49.5 43.0388 50.7196C43.0424 49.8761 43.0061 49.0326 43.0569 48.1927C43.4629 41.8809 43.8871 35.5655 44.3112 29.2537C44.3692 28.3774 44.4127 27.403 43.3034 27.2612C42.3137 27.134 42.0056 27.9739 41.9584 28.8137C41.4581 37.1144 40.976 45.415 40.4866 53.7156C39 56 39.2592 56.1361 39 57C37.5 62 37.996 66.6519 41.6974 70.5931C43.2635 72.2583 44.9783 73.6909 47.2368 74.6253C46.6314 75.1525 46.0803 74.9634 45.5945 74.9634C34.2983 74.9779 23.0021 74.9525 11.7058 74.9961C10.2086 75.0034 9.54516 74.7525 9.36752 72.9746C8.73673 66.6664 8.22194 60.3437 7.58753 54.0392C6.95673 47.7892 6.38032 41.5392 5.81116 35.2819C5.387 30.6389 4.86134 26.0032 4.38281 21.3639C4.91935 21.3276 5.45588 21.2658 5.99242 21.2621C18.7134 21.1749 31.4344 21.084 44.1517 21.0112C48.2337 20.9894 52.3121 21.0222 56.3905 21.0331ZM17.6186 48.28C17.8651 52.3376 18.2022 58.0568 18.5611 63.7759C18.6119 64.554 18.7206 65.3357 18.8947 66.0956C19.007 66.5937 19.3768 66.9536 19.9568 66.8518C20.4608 66.7646 20.8849 66.5028 20.9429 65.9429C20.9973 65.4048 20.9937 64.8594 20.961 64.3177C20.4426 55.828 19.917 47.342 19.3877 38.8559C19.1847 35.6055 18.9744 32.355 18.7714 29.1046C18.717 28.232 18.6663 27.2431 17.5243 27.2649C16.2192 27.2903 16.3316 28.3593 16.3824 29.2828C16.386 29.3446 16.3896 29.4028 16.3932 29.4646C16.7703 35.1801 17.14 40.8993 17.6186 48.28ZM29.2411 47.0911C29.2411 52.8757 29.2411 58.6603 29.2447 64.4449C29.2447 64.9249 29.223 65.4157 29.2991 65.8884C29.397 66.4883 29.8066 66.8737 30.4193 66.8482C30.9341 66.8264 31.3039 66.4664 31.4162 65.9502C31.4924 65.6011 31.4851 65.2339 31.4851 64.874C31.4887 53.0029 31.4887 41.132 31.4851 29.261C31.4851 28.8428 31.5105 28.3993 31.3909 28.0066C31.2422 27.5158 30.8253 27.2067 30.2924 27.2358C29.7668 27.2649 29.3788 27.5739 29.3063 28.1157C29.2411 28.5883 29.2447 29.0755 29.2447 29.5555C29.2411 35.3982 29.2411 41.2447 29.2411 47.0911Z" fill="#FDE4E4"/>
<path d="M56.3915 21.0322C52.3131 21.025 48.2347 20.9922 44.1563 21.0141C31.4354 21.0831 18.7144 21.174 5.99706 21.2649C5.46052 21.2686 4.92398 21.3304 4.38745 21.3667C3.78928 21.334 3.18749 21.2322 2.59658 21.2795C0.740455 21.4249 0.164042 20.2251 0.0770364 18.7417C-0.0425966 16.6983 0.00815679 14.6404 0.026283 12.5898C0.0444092 10.4229 0.783958 9.64117 2.94823 9.59754C6.07318 9.5321 9.20177 9.48119 12.3303 9.543C13.6101 9.56845 14.0306 9.14306 13.9327 7.89233C13.8348 6.63434 13.8493 5.35816 13.9146 4.09289C14.0378 1.55871 15.3756 0.129828 17.8697 0.104377C26.1679 0.0207527 34.4697 -0.0156057 42.7679 0.00620934C45.1315 0.00984517 46.4801 1.47509 46.5925 3.91473C46.6578 5.29998 46.6723 6.69251 46.5961 8.07413C46.5381 9.13579 46.9623 9.40484 47.9556 9.37939C51.0806 9.2994 54.2091 9.28122 57.3377 9.27032C59.8065 9.26304 60.5497 10.012 60.6041 12.5026C60.6367 14.0696 60.6258 15.6403 60.6294 17.2073C60.6331 20.1924 60.0276 20.8286 57.1129 20.9413C56.8664 20.9486 56.6308 20.9995 56.3915 21.0322Z" fill="#E34646"/>
<path d="M56.3915 21.0315C52.3131 21.0242 48.2347 20.9915 44.1563 21.0133C31.4354 21.0824 18.7144 21.1733 5.99706 21.2642C5.46052 21.2678 4.92398 21.3296 4.38745 21.366C3.78928 21.3333 3.18749 21.2315 2.59658 21.2787C0.740456 21.4242 0.164042 20.2244 0.0770364 18.7409C-0.0425966 16.6976 0.00815679 14.6397 0.026283 12.5891C0.0444092 10.4221 0.783958 9.64044 2.94823 9.59681C6.07318 9.53136 9.20177 9.48046 12.3303 9.54227C13.6101 9.56772 13.001 9.49854 14.001 9.49854C16.501 9.49854 15.501 9.49805 17.001 9.3789C19.001 9.37848 18.5068 9.40436 21.001 9.3789C29.2992 9.29528 23.5128 9.35678 31.811 9.37859C34.1746 9.38223 38.3301 9.37859 42.001 9.37866C43.4442 9.37866 44.2973 9.37866 46.0734 9.37866C46.7833 9.37866 46.9623 9.40411 47.9556 9.37866C51.0806 9.29867 54.2091 9.28049 57.3377 9.26958C59.8065 9.26231 60.5497 10.0113 60.6041 12.5018C60.6367 14.0689 60.6258 15.6396 60.6294 17.2066C60.6331 20.1916 60.0276 20.8279 57.1129 20.9406C56.8664 20.9479 56.6308 20.9988 56.3915 21.0315Z" fill="#F05655"/>
<path d="M40.4883 53.7165C40.9777 45.4159 41.4598 37.1153 41.9601 28.8147C42.0109 27.9784 42.319 27.1385 43.3051 27.2622C44.4144 27.404 44.3709 28.3784 44.3129 29.2546C43.8924 35.5664 43.4682 41.8782 43.0586 48.1937C43.0042 49.0335 43.0441 49.8771 43.0405 50.7206C42.1921 51.7204 41.3402 52.7166 40.4883 53.7165Z" fill="#F05655"/>
<path d="M17.619 48.2808C17.1405 40.9001 16.7707 35.1809 16.401 29.4618C16.3973 29.3999 16.3937 29.3418 16.3901 29.28C16.3393 28.3565 16.227 27.2875 17.532 27.2621C18.674 27.2403 18.7247 28.2292 18.7791 29.1018C18.9821 32.3522 19.1924 35.6027 19.3954 38.8531C19.9211 47.3392 20.4504 55.8288 20.9688 64.3149C21.0014 64.853 21.005 65.402 20.9506 65.9401C20.8926 66.4964 20.4685 66.7581 19.9646 66.849C19.3845 66.9508 19.0148 66.5909 18.9024 66.0928C18.7284 65.3329 18.616 64.5512 18.5689 63.7731C18.2027 58.0576 17.8619 52.3384 17.619 48.2808Z" fill="#F05655"/>
<path d="M29.2422 47.0916C29.2422 41.2451 29.2422 35.4023 29.2458 29.5559C29.2458 29.076 29.2422 28.5888 29.3074 28.1161C29.3836 27.5744 29.7678 27.2654 30.2935 27.2363C30.8264 27.2072 31.2397 27.5162 31.392 28.0071C31.5116 28.3997 31.4862 28.8397 31.4862 29.2614C31.4898 41.1324 31.4898 53.0034 31.4862 64.8744C31.4862 65.2344 31.4935 65.6052 31.4173 65.9506C31.3049 66.4669 30.9352 66.8232 30.4204 66.8487C29.8077 66.8778 29.3981 66.4924 29.3002 65.8888C29.2241 65.4162 29.2458 64.929 29.2458 64.4454C29.2422 58.6608 29.2422 52.8762 29.2422 47.0916Z" fill="#F05655"/>
<path d="M52.0974 73.2367C45.6408 73.1494 40.4712 67.8484 40.5437 61.3802C40.6162 54.7158 45.8656 49.6983 52.6774 49.7783C58.8476 49.851 64.057 55.3375 63.999 61.7038C63.941 68.0702 58.5213 73.3203 52.0974 73.2367ZM54.4284 64.7616C55.1136 64.7143 55.4942 64.5289 55.7045 64.1362C56.0634 63.4672 55.7226 62.9255 55.1933 62.591C53.9354 61.7984 53.7831 61.0239 54.9722 60.0059C55.4725 59.5769 55.8785 58.9224 55.2078 58.2898C54.5553 57.679 53.8375 57.7735 53.3626 58.4934C52.536 59.7441 51.7493 59.8532 50.7343 58.7006C50.2557 58.1589 49.5089 58.0098 48.9797 58.5915C48.4504 59.1769 48.6461 59.9332 49.2661 60.3258C50.7669 61.2748 50.5313 62.151 49.3712 63.1872C48.9434 63.569 48.918 64.1871 49.2733 64.6852C49.5307 65.0452 50.0745 65.3324 50.3718 65.0233C51.7457 63.6017 53.0798 62.6673 54.4284 64.7616Z" fill="#F05655"/>
<path d="M54.4284 64.7616C53.0834 62.6637 51.7457 63.6017 50.3681 65.027C50.0709 65.336 49.5271 65.0488 49.2697 64.6888C48.9144 64.1944 48.9398 63.5726 49.3676 63.1909C50.5276 62.1547 50.7633 61.2784 49.2624 60.3295C48.6425 59.9368 48.4468 59.1842 48.976 58.5952C49.5053 58.0098 50.2521 58.1625 50.7307 58.7043C51.7493 59.8568 52.5324 59.7477 53.359 58.497C53.8339 57.7771 54.5517 57.6826 55.2042 58.2934C55.8785 58.926 55.4688 59.5805 54.9686 60.0095C53.7795 61.0276 53.9317 61.802 55.1897 62.5946C55.7226 62.9291 56.0598 63.4672 55.7009 64.1398C55.4942 64.5325 55.1099 64.7143 54.4284 64.7616Z" fill="#F05655"/>
<path d="M56.6926 57.3074C56.4958 57.1106 56.2288 57 55.9505 57C55.6721 57 55.4052 57.1106 55.2083 57.3074L52.4937 60.022L49.779 57.3074C49.581 57.1161 49.3159 57.0103 49.0406 57.0127C48.7654 57.0151 48.5021 57.1255 48.3075 57.3201C48.1128 57.5148 48.0024 57.7781 48 58.0533C47.9976 58.3285 48.1035 58.5937 48.2947 58.7917L51.0093 61.5063L48.2947 64.221C48.1035 64.419 47.9976 64.6841 48 64.9594C48.0024 65.2346 48.1128 65.4979 48.3075 65.6925C48.5021 65.8872 48.7654 65.9976 49.0406 66C49.3159 66.0024 49.581 65.8965 49.779 65.7053L52.4937 62.9907L55.2083 65.7053C55.4063 65.8965 55.6715 66.0024 55.9467 66C56.2219 65.9976 56.4852 65.8872 56.6799 65.6925C56.8745 65.4979 56.9849 65.2346 56.9873 64.9594C56.9897 64.6841 56.8839 64.419 56.6926 64.221L53.978 61.5063L56.6926 58.7917C56.8894 58.5948 57 58.3279 57 58.0495C57 57.7712 56.8894 57.5042 56.6926 57.3074Z" fill="white"/>
</svg>
