<svg width="107" height="71" viewBox="0 0 107 71" fill="none" xmlns="http://www.w3.org/2000/svg">
<g clipPath="url(#clip0_678_51944)">
<rect x="0.519531" y="0.648438" width="106.058" height="69.7986" rx="4.53237" fill="#292A2E"/>
<rect x="0.519531" y="0.648438" width="106.058" height="13.5971" fill="#2591FE" fill-opacity="0.3"/>
<g clipPath="url(#clip1_678_51944)">
<path d="M4.78772 73.4004V-6.14263C4.78772 -7.61728 5.98314 -8.8125 7.45779 -8.8125C5.24178 -8.8125 3.75428 -8.8125 3.18961 -8.8125C1.71496 -8.81271 0.519531 -7.61728 0.519531 -6.14263V73.4004C0.519531 74.875 1.71496 76.0703 3.18961 76.0703H7.45779C5.98314 76.0703 4.78772 74.875 4.78772 73.4004Z" fill="white" fill-opacity="0.03"/>
<path d="M43.5721 19.4453H12.5499C11.3001 19.4453 10.2773 20.468 10.2773 21.7179V61.9893C10.2773 63.2391 11.3001 64.2618 12.5499 64.2618H43.572C44.8218 64.2618 45.8445 63.2393 45.8445 61.9893V21.7177C45.8445 20.4679 44.822 19.4453 43.5721 19.4453Z" fill="white" fill-opacity="0.06"/>
<path d="M27.9725 22.9492C22.8875 22.9492 18.7656 27.0713 18.7656 32.1561V35.7995C19.3809 35.229 20.2563 34.9191 21.1109 35.0333V34.5745C21.1109 34.2099 21.4222 33.9217 21.7834 33.9491C25.343 34.2048 28.9657 33.0736 31.7049 31.2843C31.9606 31.1173 32.2991 31.1588 32.5071 31.3821C34.8488 33.8993 34.8347 33.8018 34.8347 34.1304V35.0313C35.7713 34.8908 36.6022 35.1803 37.1794 35.717V32.156C37.1794 27.0711 33.0575 22.9492 27.9725 22.9492Z" fill="#576574"/>
<path d="M21.2367 32.1561C21.2367 27.4905 24.7078 23.6382 29.2081 23.034C28.8036 22.9798 28.3918 22.9492 27.9725 22.9492C22.8875 22.9492 18.7656 27.0711 18.7656 32.1561V35.7995C19.3809 35.229 20.2563 34.9191 21.1109 35.0333V34.5745C21.1109 34.4328 21.1582 34.3031 21.2369 34.1986L21.2367 32.1561Z" fill="#3E4B5A"/>
<path d="M34.7112 34.6642V39.7077C34.7112 39.7624 34.7083 39.8163 34.707 39.8709C36.4918 40.1412 37.8897 38.8516 37.8897 37.2678C37.8897 35.6808 36.4906 34.3974 34.7112 34.6642Z" fill="#F2BB88"/>
<path d="M21.2332 39.7056V34.6641C19.6794 34.4566 18.0547 35.6492 18.0547 37.2657C18.0547 38.8475 19.4495 40.1393 21.2372 39.8688C21.2358 39.8143 21.2332 39.76 21.2332 39.7056Z" fill="#F2BB88"/>
<path d="M36.9441 35.2518C36.3738 34.7786 35.589 34.5326 34.7112 34.6641V39.7076C34.7112 39.7623 34.7084 39.8163 34.707 39.8708C35.5874 40.0041 36.3732 39.7574 36.9441 39.2835V35.2518Z" fill="#E3A76F"/>
<path d="M21.2332 39.2819C20.6466 38.7948 20.2875 38.0679 20.2875 37.2657C20.2875 36.4853 20.6667 35.8044 21.2332 35.3315V34.6641C19.6794 34.4566 18.0547 35.6492 18.0547 37.2657C18.0547 38.8473 19.4495 40.1393 21.2372 39.8688C21.2358 39.8144 21.2332 39.7602 21.2332 39.7058V39.2819Z" fill="#E3A76F"/>
<path d="M24.207 45.2659V48.8793L28.0542 53.6281L31.9013 48.8793V45.1641C29.4983 46.8216 26.3891 46.6603 24.207 45.2659Z" fill="#F2BB88"/>
<path d="M26.6709 46.222C25.7538 46.0519 24.9264 45.7173 24.207 45.2578V48.8712L26.6709 51.9125V46.222Z" fill="#E3A76F"/>
<path d="M42.0804 52.5704L31.9028 48.6289L28.0557 53.3777L24.2084 48.6289L14.0416 52.5704C14.0416 52.5704 10.2773 54.1179 10.2773 58.4092V62.3075C10.2775 63.5573 11.3001 64.5799 12.5499 64.5799H43.572C44.8218 64.5799 45.8445 63.5573 45.8445 62.3073V58.4092C45.8445 54.1179 42.0804 52.5704 42.0804 52.5704Z" fill="#E4EAF8"/>
<path d="M12.7412 64.5803V57.301C12.7412 54.3568 14.513 52.7045 15.6254 51.957L14.0416 52.571C14.0416 52.571 10.2773 54.1185 10.2773 58.4097V62.3078C10.2773 63.4144 11.0934 64.5803 12.7412 64.5803Z" fill="#D8DCE5"/>
<path d="M32.5095 31.1414C32.3017 30.9181 31.963 30.8764 31.7073 31.0436C28.9681 32.833 25.3455 33.9641 21.7858 33.7084C21.4248 33.681 21.1133 33.9692 21.1133 34.3338V39.8342C21.1133 43.3694 23.8831 46.5981 28.073 46.5981C31.8027 46.5981 34.8369 43.5638 34.8369 39.8342V33.8899C34.837 33.5611 34.8512 33.6584 32.5095 31.1414Z" fill="#F2D1A5"/>
<path d="M23.5772 39.8308V33.7192C22.9812 33.7509 22.3826 33.7478 21.7858 33.7049C21.4248 33.6776 21.1133 33.9656 21.1133 34.3304V39.8308C21.1133 44.0706 24.9321 47.2228 29.207 46.4977C26.0157 45.9565 23.5772 43.1739 23.5772 39.8308Z" fill="#F2BB88"/>
<path d="M32.6999 55.8138L35.5767 50.0482L31.9018 48.625L28.0547 53.3738L31.8055 56.0376C32.1091 56.2533 32.5334 56.1472 32.6999 55.8138Z" fill="#D8DCE5"/>
<path d="M23.4159 55.8138L20.5391 50.0482L24.2139 48.625L28.0611 53.3738L24.3103 56.0376C24.0065 56.2533 23.5822 56.1472 23.4159 55.8138Z" fill="#D8DCE5"/>
<path d="M28.0608 53.3821V53.3789L28.0585 53.3806L28.0562 53.3789V53.3821L25.3281 55.3197L26.6176 57.2605C27.6576 57.2605 28.4594 57.2605 29.4994 57.2605L30.7889 55.3197L28.0608 53.3821Z" fill="#EE5253"/>
<path d="M29.4236 54.3501L28.0608 53.3821V53.3789L28.0585 53.3806L28.0562 53.3789V53.3821L25.3281 55.3197L26.6176 57.2605C27.621 57.2605 28.4003 57.2605 29.348 57.2605L28.2892 55.6668C28.1605 55.4734 28.2089 55.2127 28.3983 55.0781L29.4236 54.3501Z" fill="#D83941"/>
<path d="M26.6165 57.2617L25.625 64.5821H30.4899L29.4984 57.2617C28.458 57.2617 27.6568 57.2617 26.6165 57.2617Z" fill="#FF6B6B"/>
<path d="M26.6165 57.2617L25.625 64.5821H28.3554L29.3469 57.2617C28.395 57.2617 27.6237 57.2617 26.6165 57.2617Z" fill="#EE5253"/>
<path d="M17.871 64.5784V59.8828C17.871 59.227 17.3394 58.6953 16.6836 58.6953C16.0278 58.6953 15.4961 59.2269 15.4961 59.8828V64.5784H17.871Z" fill="#D8DCE5"/>
<path d="M40.6249 64.5784V59.8828C40.6249 59.227 40.0933 58.6953 39.4375 58.6953C38.7817 58.6953 38.25 59.2269 38.25 59.8828V64.5784H40.6249Z" fill="#D8DCE5"/>
<path d="M74.6112 21.4922H53.6481C52.341 21.4922 51.2812 22.5517 51.2812 23.859V24.4541C51.2812 25.7612 52.3408 26.8209 53.6481 26.8209H74.6112C75.9182 26.8209 76.978 25.7614 76.978 24.4541V23.859C76.978 22.5519 75.9185 21.4922 74.6112 21.4922Z" fill="#54A0FF"/>
<path d="M74.6114 24.268H53.6481C52.69 24.268 51.8668 23.6975 51.4944 22.8789C51.3587 23.1772 51.2812 23.5074 51.2812 23.8564V24.4515C51.2812 25.7586 52.341 26.8183 53.6481 26.8183H74.6114C75.9185 26.8183 76.9782 25.7586 76.9782 24.4515V23.8564C76.9782 23.5074 76.9007 23.1772 76.7651 22.8789C76.3926 23.6975 75.5694 24.268 74.6114 24.268Z" fill="#338DEF"/>
<rect x="51.2812" y="30.5625" width="34.446" height="3.6259" rx="1.81295" fill="white" fill-opacity="0.06"/>
<rect x="51.2812" y="37.8125" width="48.0432" height="3.6259" rx="1.81295" fill="white" fill-opacity="0.06"/>
<rect x="51.2812" y="45.0664" width="25.3813" height="3.6259" rx="1.81295" fill="white" fill-opacity="0.06"/>
<rect x="51.2812" y="52.3164" width="16.3165" height="3.6259" rx="1.81295" fill="white" fill-opacity="0.06"/>
<rect x="51.2812" y="59.5664" width="34.446" height="3.6259" rx="1.81295" fill="white" fill-opacity="0.06"/>
</g>
</g>
<defs>
<clipPath id="clip0_678_51944">
<rect x="0.519531" y="0.648438" width="106.058" height="69.7986" rx="4.53237" fill="white"/>
</clipPath>
<clipPath id="clip1_678_51944">
<rect width="106.058" height="69.7986" fill="white" transform="translate(0.519531 0.648438)"/>
</clipPath>
</defs>
</svg>
