<svg width="107" height="71" viewBox="0 0 107 71" fill="none" xmlns="http://www.w3.org/2000/svg">
<g clipPath="url(#clip0_678_51990)">
<rect x="0.519531" y="0.941406" width="106.058" height="69.7986" rx="4.53237" fill="#292A2E"/>
<rect x="0.519531" y="0.941406" width="106.058" height="13.5971" fill="#2591FE" fill-opacity="0.3"/>
<g clipPath="url(#clip1_678_51990)">
<path d="M4.78772 73.6934V-5.84966C4.78772 -7.32431 5.98314 -8.51953 7.45779 -8.51953C5.24178 -8.51953 3.75428 -8.51953 3.18961 -8.51953C1.71496 -8.51974 0.519531 -7.32431 0.519531 -5.84966V73.6934C0.519531 75.168 1.71496 76.3632 3.18961 76.3632H7.45779C5.98314 76.3632 4.78772 75.168 4.78772 73.6934Z" fill="white" fill-opacity="0.03"/>
<path d="M35.6346 21.7891H14.6715C13.3644 21.7891 12.3047 22.8486 12.3047 24.1559V24.751C12.3047 26.0581 13.3642 27.1178 14.6715 27.1178H35.6346C36.9417 27.1178 38.0014 26.0583 38.0014 24.751V24.1559C38.0014 22.8488 36.9419 21.7891 35.6346 21.7891Z" fill="#54A0FF"/>
<path d="M35.6348 24.5649H14.6715C13.7135 24.5649 12.8903 23.9944 12.5178 23.1758C12.3822 23.4741 12.3047 23.8043 12.3047 24.1533V24.7484C12.3047 26.0555 13.3644 27.1152 14.6715 27.1152H35.6348C36.9419 27.1152 38.0016 26.0555 38.0016 24.7484V24.1533C38.0016 23.8043 37.9242 23.4741 37.7885 23.1758C37.416 23.9944 36.5929 24.5649 35.6348 24.5649Z" fill="#338DEF"/>
<rect x="12.3047" y="30.8555" width="34.446" height="3.6259" rx="1.81295" fill="white" fill-opacity="0.06"/>
<rect x="12.3047" y="38.1094" width="48.0432" height="3.6259" rx="1.81295" fill="white" fill-opacity="0.06"/>
<rect x="12.3047" y="45.3594" width="25.3813" height="3.6259" rx="1.81295" fill="white" fill-opacity="0.06"/>
<rect x="12.3047" y="52.6094" width="16.3165" height="3.6259" rx="1.81295" fill="white" fill-opacity="0.06"/>
<rect x="83.0078" y="52.6094" width="16.3165" height="3.6259" rx="1.81295" fill="white" fill-opacity="0.06"/>
<rect x="12.3047" y="59.8633" width="34.446" height="3.6259" rx="1.81295" fill="white" fill-opacity="0.06"/>
<rect x="64.8789" y="59.8633" width="34.446" height="3.6259" rx="1.81295" fill="white" fill-opacity="0.06"/>
</g>
</g>
<defs>
<clipPath id="clip0_678_51990">
<rect x="0.519531" y="0.941406" width="106.058" height="69.7986" rx="4.53237" fill="white"/>
</clipPath>
<clipPath id="clip1_678_51990">
<rect width="106.058" height="69.7986" fill="white" transform="translate(0.519531 0.941406)"/>
</clipPath>
</defs>
</svg>
