<svg xmlns="http://www.w3.org/2000/svg" width="24" height="24" viewBox="0 0 24 24" fill="none">
  <g clipPath="url(#clip0_2354_15760)">
    <path d="M20.3914 8.50246C19.649 8.50454 18.9254 8.73621 18.3198 9.1657C17.7142 9.59519 17.2563 10.2015 17.0088 10.9014H1.19949C0.881369 10.9014 0.576273 11.0278 0.351324 11.2528C0.126375 11.4777 0 11.7828 0 12.1009C0 12.4191 0.126375 12.7242 0.351324 12.9491C0.576273 13.1741 0.881369 13.3004 1.19949 13.3004H17.0088C17.2289 13.9228 17.6159 14.4727 18.1275 14.8899C18.6392 15.307 19.2557 15.5754 19.9096 15.6656C20.5636 15.7559 21.2298 15.6645 21.8353 15.4015C22.4407 15.1384 22.9622 14.7139 23.3426 14.1744C23.723 13.6348 23.9476 13.0011 23.9919 12.3424C24.0362 11.6837 23.8984 11.0256 23.5937 10.44C23.289 9.85435 22.8291 9.36384 22.2643 9.02211C21.6995 8.68038 21.0516 8.5006 20.3914 8.50246ZM20.3914 13.3004C20.1542 13.3004 19.9223 13.2301 19.725 13.0983C19.5278 12.9665 19.374 12.7791 19.2832 12.56C19.1924 12.3408 19.1687 12.0996 19.215 11.8669C19.2612 11.6343 19.3755 11.4205 19.5432 11.2528C19.711 11.085 19.9247 10.9708 20.1574 10.9245C20.3901 10.8782 20.6313 10.902 20.8504 10.9928C21.0696 11.0835 21.257 11.2373 21.3888 11.4345C21.5206 11.6318 21.5909 11.8637 21.5909 12.1009C21.5909 12.4191 21.4645 12.7242 21.2396 12.9491C21.0146 13.1741 20.7095 13.3004 20.3914 13.3004Z" fill="white"/>
    <path d="M1.19949 6.10326H2.6149C2.86704 6.79795 3.32695 7.39816 3.93214 7.82232C4.53733 8.24649 5.25844 8.47403 5.99747 8.47403C6.73651 8.47403 7.45762 8.24649 8.06281 7.82232C8.66799 7.39816 9.12791 6.79795 9.38005 6.10326H22.7904C23.1085 6.10326 23.4136 5.97688 23.6386 5.75193C23.8635 5.52699 23.9899 5.22189 23.9899 4.90376C23.9899 4.58564 23.8635 4.28054 23.6386 4.05559C23.4136 3.83064 23.1085 3.70427 22.7904 3.70427H9.38005C9.12791 3.00958 8.66799 2.40937 8.06281 1.9852C7.45762 1.56104 6.73651 1.3335 5.99747 1.3335C5.25844 1.3335 4.53733 1.56104 3.93214 1.9852C3.32695 2.40937 2.86704 3.00958 2.6149 3.70427H1.19949C0.881369 3.70427 0.576273 3.83064 0.351324 4.05559C0.126375 4.28054 0 4.58564 0 4.90376C0 5.22189 0.126375 5.52699 0.351324 5.75193C0.576273 5.97688 0.881369 6.10326 1.19949 6.10326ZM5.99747 3.70427C6.23471 3.70427 6.46662 3.77462 6.66388 3.90642C6.86113 4.03822 7.01487 4.22556 7.10566 4.44474C7.19645 4.66392 7.2202 4.90509 7.17392 5.13777C7.12764 5.37045 7.0134 5.58418 6.84564 5.75193C6.67789 5.91969 6.46416 6.03393 6.23148 6.08021C5.9988 6.12649 5.75763 6.10274 5.53845 6.01195C5.31927 5.92117 5.13193 5.76742 5.00013 5.57017C4.86833 5.37291 4.79798 5.141 4.79798 4.90376C4.79798 4.58564 4.92435 4.28054 5.1493 4.05559C5.37425 3.83064 5.67935 3.70427 5.99747 3.70427Z" fill="white"/>
    <path d="M22.7904 18.0983H14.178C13.9259 17.4036 13.466 16.8034 12.8608 16.3792C12.2556 15.9551 11.5345 15.7275 10.7955 15.7275C10.0564 15.7275 9.33531 15.9551 8.73012 16.3792C8.12493 16.8034 7.66502 17.4036 7.41288 18.0983H1.19949C0.881369 18.0983 0.576273 18.2247 0.351324 18.4496C0.126375 18.6746 0 18.9797 0 19.2978C0 19.6159 0.126375 19.921 0.351324 20.146C0.576273 20.3709 0.881369 20.4973 1.19949 20.4973H7.41288C7.66502 21.192 8.12493 21.7922 8.73012 22.2164C9.33531 22.6405 10.0564 22.8681 10.7955 22.8681C11.5345 22.8681 12.2556 22.6405 12.8608 22.2164C13.466 21.7922 13.9259 21.192 14.178 20.4973H22.7904C23.1085 20.4973 23.4136 20.3709 23.6386 20.146C23.8635 19.921 23.9899 19.6159 23.9899 19.2978C23.9899 18.9797 23.8635 18.6746 23.6386 18.4496C23.4136 18.2247 23.1085 18.0983 22.7904 18.0983ZM10.7955 20.4973C10.5582 20.4973 10.3263 20.427 10.129 20.2952C9.93179 20.1633 9.77805 19.976 9.68726 19.7568C9.59648 19.5377 9.57272 19.2965 9.619 19.0638C9.66529 18.8311 9.77953 18.6174 9.94728 18.4496C10.115 18.2819 10.3288 18.1676 10.5614 18.1214C10.7941 18.0751 11.0353 18.0988 11.2545 18.1896C11.4737 18.2804 11.661 18.4341 11.7928 18.6314C11.9246 18.8287 11.9949 19.0606 11.9949 19.2978C11.9949 19.6159 11.8686 19.921 11.6436 20.146C11.4187 20.3709 11.1136 20.4973 10.7955 20.4973Z" fill="white"/>
  </g>
  <defs>
    <clipPath id="clip0_2354_15760">
      <rect width="24" height="24" fill="white"/>
    </clipPath>
  </defs>
</svg>