<svg width="84" height="73" viewBox="0 0 84 73" fill="none" xmlns="http://www.w3.org/2000/svg">
<path d="M81.9961 19.5038C79.3671 13.0088 74.5827 8.2893 68.5008 4.93625C59.9681 0.231801 50.8254 -1.02536 41.2755 0.804778C33.3204 2.32958 26.4431 5.88996 21.0563 12.0155C16.7776 16.8783 14.4214 22.5176 14.3911 28.3228C14.3949 31.6645 14.7491 34.2392 15.6204 36.7101C18.6603 45.3444 24.8331 51.0459 33.0268 54.7175C39.5046 57.62 46.3497 58.5153 53.4089 57.8274C53.8464 57.784 54.1912 57.8933 54.5605 58.1139C56.5531 59.3088 58.5305 60.5339 60.5704 61.646C63.5516 63.2725 66.5973 64.7785 69.9972 65.3609C71.4423 65.6078 72.7776 64.9104 73.4349 63.6043C73.9955 62.4922 73.7701 61.4405 73.2549 60.3681C72.0049 57.7671 71.2112 55.0624 71.4177 52.124C71.4632 51.4737 71.7359 51.1175 72.2227 50.7669C74.7134 48.9726 76.9124 46.8711 78.7099 44.3869C84.2822 36.6837 85.5778 28.3529 81.9961 19.5038ZM39.694 33.4023C36.8093 33.3778 34.5686 31.0953 34.6027 28.2172C34.6349 25.3919 36.9173 23.1584 39.7508 23.1792C42.5995 23.198 44.9083 25.5446 44.8572 28.368C44.8061 31.1745 42.4972 33.4249 39.694 33.4023ZM58.5608 33.4023C55.7443 33.3684 53.4904 31.0916 53.4904 28.2794C53.4922 25.4711 55.7613 23.198 58.5854 23.1792C61.4473 23.1584 63.7524 25.4504 63.7429 28.3039C63.7354 31.1575 61.4189 33.4344 58.5608 33.4023Z" fill="#2C2F36"/>
<path d="M13.766 16.9311C12.6239 19.4379 11.6939 21.9503 11.1636 24.6003C9.79229 31.4421 10.9268 37.8806 14.4934 43.8516C18.6622 50.8291 24.8255 55.4337 32.3506 58.3476C37.8567 60.4793 43.573 61.3029 49.4597 61.0391C49.8632 61.0202 50.2666 61.0014 50.9352 60.9712C49.3897 61.9645 47.9407 62.5903 46.4671 63.15C40.5671 65.3929 34.472 66.1412 28.2007 65.425C27.5681 65.3534 27.0605 65.4853 26.5226 65.817C22.7818 68.1278 19.0353 70.4348 14.912 72.0425C13.9157 72.4308 12.8986 72.7474 11.8436 72.9453C11.281 73.0509 10.7696 73.0528 10.3946 72.5552C10.0309 72.0745 10.2298 71.6034 10.4609 71.1453C12.0159 68.0599 12.7849 64.8143 12.5179 61.3482C12.4421 60.37 12.1125 59.6651 11.2242 59.0412C6.5004 55.7202 2.92819 51.4417 1.17428 45.8985C-1.30126 38.0615 0.189368 30.8673 5.13857 24.3628C7.38493 21.4094 10.1673 19.0289 13.3683 17.1346C13.4971 17.0593 13.6335 16.9989 13.766 16.9311Z" fill="#2C2F36"/>
</svg>
