<svg width="66" height="67" viewBox="0 0 66 67" fill="none" xmlns="http://www.w3.org/2000/svg">
<path fillRule="evenodd" clipRule="evenodd" d="M41.1719 8.19741C41.1719 7.07012 42.0858 6.15625 43.213 6.15625H47.2954C54.4351 6.15625 60.2227 11.944 60.2227 19.0836V23.166C60.2227 24.2933 59.3088 25.2071 58.1816 25.2071C57.0543 25.2071 56.1404 24.2933 56.1404 23.166V19.0836C56.1404 14.1986 52.1803 10.2386 47.2954 10.2386H43.213C42.0858 10.2386 41.1719 9.32471 41.1719 8.19741Z" fill="#0B7BFF" fill-opacity="0.33"/>
<path fillRule="evenodd" clipRule="evenodd" d="M24.8399 8.19741C24.8399 7.07012 23.9261 6.15625 22.7988 6.15625H18.7164C11.5769 6.15625 5.78906 11.944 5.78906 19.0836V23.166C5.78906 24.2933 6.70293 25.2071 7.83023 25.2071C8.95752 25.2071 9.87139 24.2933 9.87139 23.166V19.0836C9.87139 14.1986 13.8314 10.2386 18.7164 10.2386H22.7988C23.9261 10.2386 24.8399 9.32471 24.8399 8.19741Z" fill="#0B7BFF" fill-opacity="0.33"/>
<path fillRule="evenodd" clipRule="evenodd" d="M41.1719 58.5488C41.1719 59.676 42.0858 60.5899 43.213 60.5899H47.2954C54.4351 60.5899 60.2227 54.8023 60.2227 47.6626V43.5802C60.2227 42.453 59.3088 41.5391 58.1816 41.5391C57.0543 41.5391 56.1404 42.453 56.1404 43.5802V47.6626C56.1404 52.5475 52.1803 56.5076 47.2954 56.5076H43.213C42.0858 56.5076 41.1719 57.4215 41.1719 58.5488Z" fill="#0B7BFF" fill-opacity="0.33"/>
<path fillRule="evenodd" clipRule="evenodd" d="M24.8399 58.5488C24.8399 59.676 23.9261 60.5899 22.7988 60.5899H18.7164C11.5769 60.5899 5.78906 54.8023 5.78906 47.6626V43.5802C5.78906 42.453 6.70293 41.5391 7.83023 41.5391C8.95752 41.5391 9.87139 42.453 9.87139 43.5802V47.6626C9.87139 52.5475 13.8314 56.5076 18.7164 56.5076H22.7988C23.9261 56.5076 24.8399 57.4215 24.8399 58.5488Z" fill="#0B7BFF" fill-opacity="0.33"/>
<path d="M39.9053 30.0708L39.5068 30.7243H40.2722H41.4109C44.047 30.7243 46.1842 32.8613 46.1842 35.4976V35.7649C46.1842 43.0429 40.2842 48.9429 33.0062 48.9429C25.7282 48.9429 19.8282 43.0429 19.8282 35.7649V35.4976C19.8282 32.8613 21.9653 30.7243 24.6016 30.7243H25.7402H26.5057L26.1071 30.0708C25.361 28.8476 24.9311 27.4107 24.9311 25.872C24.9311 21.4123 28.5464 17.7969 33.0062 17.7969C37.466 17.7969 41.0813 21.4123 41.0813 25.872C41.0813 27.4107 40.6514 28.8476 39.9053 30.0708ZM33.0062 30.7243C35.6861 30.7243 37.8584 28.552 37.8584 25.872C37.8584 23.1922 35.6861 21.0198 33.0062 21.0198C30.3263 21.0198 28.154 23.1922 28.154 25.872C28.154 28.552 30.3263 30.7243 33.0062 30.7243ZM41.4109 33.9472H24.6016C23.7452 33.9472 23.051 34.6414 23.051 35.4976V35.7649C23.051 41.263 27.5081 45.72 33.0062 45.72C38.5043 45.72 42.9614 41.263 42.9614 35.7649V35.4976C42.9614 34.6414 42.2671 33.9472 41.4109 33.9472Z" fill="#0677E8" stroke="#17181B" strokeWidth="0.859438"/>
</svg>
