<svg width="153" height="145" viewBox="0 0 153 145" fill="none" xmlns="http://www.w3.org/2000/svg">
<path d="M0.315918 10.0096C0.315918 4.48145 4.79736 0 10.3255 0H89.29C94.8182 0 99.2996 4.48145 99.2996 10.0096V47.8236C99.2996 53.3517 94.8182 57.8332 89.29 57.8332H71.7733H55.3687L27.8423 76.0451V57.8332H10.3255C4.79736 57.8332 0.315918 53.3517 0.315918 47.8236V10.0096Z" fill="#2B2F37"/>
<ellipse cx="29.7885" cy="28.9166" rx="7.22915" ry="6.67306" fill="#1C1D20"/>
<circle cx="50.364" cy="28.9166" r="6.67306" fill="#1C1D20"/>
<ellipse cx="70.9391" cy="28.9166" rx="7.22915" ry="6.67306" fill="#1C1D20"/>
<path d="M152.684 78.9646C152.684 73.4364 148.203 68.955 142.674 68.955H63.71C58.1818 68.955 53.7004 73.4364 53.7004 78.9645V116.779C53.7004 122.307 58.1818 126.788 63.71 126.788H81.2267H97.6313L125.158 145V126.788H142.674C148.203 126.788 152.684 122.307 152.684 116.779V78.9646Z" fill="#3B3F4A"/>
<circle cx="6.67306" cy="6.67306" r="6.67306" transform="matrix(-1 0 0 1 128.216 91.1985)" fill="#1C1D20"/>
<circle cx="6.67306" cy="6.67306" r="6.67306" transform="matrix(-1 0 0 1 109.309 91.1985)" fill="#1C1D20"/>
<circle cx="6.67306" cy="6.67306" r="6.67306" transform="matrix(-1 0 0 1 90.4021 91.1985)" fill="#1C1D20"/>
</svg>
