<svg width="102" height="37" viewBox="0 0 102 37" fill="none" xmlns="http://www.w3.org/2000/svg">
<path d="M50.274 18.522C50.918 18.522 51.38 18.662 51.66 18.942C51.968 19.222 52.122 19.586 52.122 20.034C52.122 20.762 51.898 21.406 51.45 21.966C51.03 22.526 50.358 22.82 49.434 22.848C47.222 22.876 45.234 22.708 43.47 22.344C41.51 26.516 39.144 29.988 36.372 32.76C33.628 35.504 30.912 36.876 28.224 36.876C25.76 36.876 23.912 35.574 22.68 32.97C21.448 30.338 20.748 26.824 20.58 22.428C18.9 27.3 16.996 30.926 14.868 33.306C12.768 35.686 10.528 36.876 8.148 36.876C5.46 36.876 3.43 35.21 2.058 31.878C0.686 28.518 0 24.01 0 18.354C0 14.238 0.364 9.716 1.092 4.788C1.288 3.388 1.638 2.422 2.142 1.89C2.674 1.33 3.5 1.05 4.62 1.05C5.46 1.05 6.104 1.232 6.552 1.596C7.028 1.96 7.266 2.632 7.266 3.612C7.266 3.808 7.238 4.186 7.182 4.746C6.342 10.486 5.922 15.372 5.922 19.404C5.922 23.156 6.244 26.054 6.888 28.098C7.532 30.142 8.4 31.164 9.492 31.164C10.472 31.164 11.648 30.142 13.02 28.098C14.42 26.026 15.806 22.974 17.178 18.942C18.55 14.882 19.712 10.052 20.664 4.452C20.888 3.164 21.294 2.282 21.882 1.806C22.498 1.302 23.324 1.05 24.36 1.05C25.228 1.05 25.858 1.246 26.25 1.638C26.67 2.002 26.88 2.562 26.88 3.318C26.88 3.766 26.852 4.116 26.796 4.368C26.012 8.932 25.62 13.496 25.62 18.06C25.62 21.168 25.718 23.646 25.914 25.494C26.138 27.342 26.544 28.756 27.132 29.736C27.748 30.688 28.63 31.164 29.778 31.164C31.122 31.164 32.62 30.156 34.272 28.14C35.924 26.096 37.436 23.562 38.808 20.538C37.1 19.474 35.812 18.102 34.944 16.422C34.076 14.714 33.642 12.754 33.642 10.542C33.642 8.33 33.978 6.468 34.65 4.956C35.35 3.416 36.288 2.268 37.464 1.512C38.668 0.756001 39.998 0.378 41.454 0.378C43.246 0.378 44.66 1.022 45.696 2.31C46.76 3.598 47.292 5.362 47.292 7.602C47.292 10.766 46.606 14.28 45.234 18.144C46.662 18.396 48.342 18.522 50.274 18.522ZM37.884 10.248C37.884 12.992 38.766 15.022 40.53 16.338C41.622 13.202 42.168 10.612 42.168 8.568C42.168 7.392 42.014 6.538 41.706 6.006C41.398 5.446 40.978 5.166 40.446 5.166C39.69 5.166 39.074 5.614 38.598 6.51C38.122 7.378 37.884 8.624 37.884 10.248Z" fill="white"/>
<path d="M53.2055 36.876C51.3855 36.876 50.0555 36.232 49.2155 34.944C48.4035 33.656 47.9975 31.948 47.9975 29.82C47.9975 28.56 48.1515 26.95 48.4595 24.99C48.7955 23.002 49.2155 21.154 49.7195 19.446C49.9715 18.55 50.3075 17.934 50.7275 17.598C51.1475 17.262 51.8195 17.094 52.7435 17.094C54.1715 17.094 54.8855 17.57 54.8855 18.522C54.8855 19.222 54.6195 20.846 54.0875 23.394C53.4155 26.474 53.0795 28.56 53.0795 29.652C53.0795 30.492 53.1915 31.136 53.4155 31.584C53.6395 32.032 54.0175 32.256 54.5495 32.256C55.0535 32.256 55.6835 31.906 56.4395 31.206C57.1955 30.506 58.2035 29.4 59.4635 27.888C59.7995 27.496 60.1775 27.3 60.5975 27.3C60.9615 27.3 61.2415 27.468 61.4375 27.804C61.6615 28.14 61.7735 28.602 61.7735 29.19C61.7735 30.31 61.5075 31.178 60.9755 31.794C58.2035 35.182 55.6135 36.876 53.2055 36.876Z" fill="white"/>
<path d="M77.1074 27.3C77.4714 27.3 77.7514 27.468 77.9474 27.804C78.1714 28.14 78.2834 28.602 78.2834 29.19C78.2834 30.31 78.0174 31.178 77.4854 31.794C76.2814 33.278 74.9654 34.496 73.5374 35.448C72.1094 36.4 70.4714 36.876 68.6234 36.876C62.9114 36.876 60.0554 32.858 60.0554 24.822C60.0554 23.59 60.0974 22.344 60.1814 21.084H58.5434C57.7034 21.084 57.1294 20.93 56.8214 20.622C56.5414 20.314 56.4014 19.824 56.4014 19.152C56.4014 17.584 57.0314 16.8 58.2914 16.8H60.6854C61.1614 13.72 61.8894 10.906 62.8694 8.358C63.8494 5.81 65.0254 3.78 66.3974 2.268C67.7974 0.756 69.2954 0 70.8914 0C72.0674 0 72.9914 0.518 73.6634 1.554C74.3354 2.59 74.6714 3.892 74.6714 5.46C74.6714 9.8 72.8514 13.58 69.2114 16.8H73.9154C74.3634 16.8 74.6854 16.898 74.8814 17.094C75.0774 17.29 75.1754 17.654 75.1754 18.186C75.1754 20.118 73.5934 21.084 70.4294 21.084H65.3054C65.2494 22.484 65.2214 23.576 65.2214 24.36C65.2214 27.272 65.5574 29.316 66.2294 30.492C66.9294 31.668 68.0214 32.256 69.5054 32.256C70.7094 32.256 71.7734 31.892 72.6974 31.164C73.6214 30.436 74.7134 29.344 75.9734 27.888C76.3094 27.496 76.6874 27.3 77.1074 27.3ZM69.7574 4.032C69.3374 4.032 68.8614 4.564 68.3294 5.628C67.8254 6.664 67.3354 8.12 66.8594 9.996C66.4114 11.844 66.0334 13.902 65.7254 16.17C67.3774 14.742 68.6094 13.146 69.4214 11.382C70.2614 9.59 70.6814 7.966 70.6814 6.51C70.6814 4.858 70.3734 4.032 69.7574 4.032Z" fill="white"/>
<path d="M80.0297 36.876C78.2097 36.876 76.8797 36.232 76.0397 34.944C75.2277 33.656 74.8217 31.948 74.8217 29.82C74.8217 28.56 74.9757 26.95 75.2837 24.99C75.6197 23.002 76.0397 21.154 76.5437 19.446C76.7957 18.55 77.1317 17.934 77.5517 17.598C77.9717 17.262 78.6437 17.094 79.5677 17.094C80.9957 17.094 81.7097 17.57 81.7097 18.522C81.7097 19.222 81.4437 20.846 80.9117 23.394C80.2397 26.474 79.9037 28.56 79.9037 29.652C79.9037 30.492 80.0157 31.136 80.2397 31.584C80.4637 32.032 80.8417 32.256 81.3737 32.256C81.8777 32.256 82.5077 31.906 83.2637 31.206C84.0197 30.506 85.0277 29.4 86.2877 27.888C86.6237 27.496 87.0017 27.3 87.4217 27.3C87.7857 27.3 88.0657 27.468 88.2617 27.804C88.4857 28.14 88.5977 28.602 88.5977 29.19C88.5977 30.31 88.3317 31.178 87.7997 31.794C85.0277 35.182 82.4377 36.876 80.0297 36.876Z" fill="white"/>
<path d="M92.1297 21.084C92.0737 22.484 92.0457 23.576 92.0457 24.36C92.0457 26.376 92.1437 27.958 92.3397 29.106C92.5637 30.226 92.9137 31.038 93.3897 31.542C93.8937 32.018 94.5797 32.256 95.4477 32.256C95.8957 32.256 96.4277 32.116 97.0437 31.836C97.6597 31.556 98.2197 31.192 98.7237 30.744C99.0317 30.464 99.3397 30.324 99.6477 30.324C99.9837 30.324 100.25 30.52 100.446 30.912C100.67 31.276 100.782 31.724 100.782 32.256C100.782 32.788 100.67 33.306 100.446 33.81C100.25 34.314 99.9417 34.734 99.5217 35.07C98.0657 36.274 96.4137 36.876 94.5657 36.876C91.9057 36.876 89.9597 35.77 88.7277 33.558C87.4957 31.318 86.8797 28.406 86.8797 24.822C86.8797 23.59 86.9217 22.344 87.0057 21.084H85.3677C84.5277 21.084 83.9537 20.93 83.6457 20.622C83.3657 20.314 83.2257 19.824 83.2257 19.152C83.2257 17.584 83.8557 16.8 85.1157 16.8H87.5097C87.9857 13.72 88.7137 10.906 89.6937 8.358C90.6737 5.81 91.8497 3.78 93.2217 2.268C94.6217 0.756 96.1197 0 97.7157 0C98.8917 0 99.8157 0.518 100.488 1.554C101.16 2.59 101.496 3.892 101.496 5.46C101.496 9.8 99.6757 13.58 96.0357 16.8H100.74C101.188 16.8 101.51 16.898 101.706 17.094C101.902 17.29 102 17.654 102 18.186C102 20.118 100.418 21.084 97.2537 21.084H92.1297ZM96.5817 4.032C96.1617 4.032 95.6857 4.564 95.1537 5.628C94.6497 6.664 94.1597 8.12 93.6837 9.996C93.2357 11.844 92.8577 13.902 92.5497 16.17C94.2017 14.742 95.4337 13.146 96.2457 11.382C97.0857 9.59 97.5057 7.966 97.5057 6.51C97.5057 4.858 97.1977 4.032 96.5817 4.032Z" fill="white"/>
<path d="M80.0298 36.876C78.2098 36.876 76.8798 36.232 76.0398 34.944C75.2278 33.656 74.8218 31.948 74.8218 29.82C74.8218 28.56 74.9758 26.95 75.2838 24.99C75.6198 23.002 76.0398 21.154 76.5438 19.446C76.7958 18.55 77.1318 17.934 77.5518 17.598C77.9718 17.262 78.6438 17.094 79.5678 17.094C80.9958 17.094 81.7098 17.57 81.7098 18.522C81.7098 19.222 81.4438 20.846 80.9118 23.394C80.2398 26.474 79.9038 28.56 79.9038 29.652C79.9038 30.492 80.0158 31.136 80.2398 31.584C80.4638 32.032 80.8418 32.256 81.3738 32.256C81.8778 32.256 82.5078 31.906 83.2638 31.206C84.0198 30.506 85.0278 29.4 86.2878 27.888C86.6238 27.496 87.0018 27.3 87.4218 27.3C87.7858 27.3 88.0658 27.468 88.2618 27.804C88.4858 28.14 88.5978 28.602 88.5978 29.19C88.5978 30.31 88.3318 31.178 87.7998 31.794C85.0278 35.182 82.4378 36.876 80.0298 36.876Z" fill="#0B7BFF"/>
<path d="M92.1297 21.084C92.0737 22.484 92.0457 23.576 92.0457 24.36C92.0457 26.376 92.1437 27.958 92.3397 29.106C92.5637 30.226 92.9137 31.038 93.3897 31.542C93.8937 32.018 94.5797 32.256 95.4477 32.256C95.8957 32.256 96.4277 32.116 97.0437 31.836C97.6597 31.556 98.2197 31.192 98.7237 30.744C99.0317 30.464 99.3397 30.324 99.6477 30.324C99.9837 30.324 100.25 30.52 100.446 30.912C100.67 31.276 100.782 31.724 100.782 32.256C100.782 32.788 100.67 33.306 100.446 33.81C100.25 34.314 99.9417 34.734 99.5217 35.07C98.0657 36.274 96.4137 36.876 94.5657 36.876C91.9057 36.876 89.9597 35.77 88.7277 33.558C87.4957 31.318 86.8797 28.406 86.8797 24.822C86.8797 23.59 86.9217 22.344 87.0057 21.084H85.3677C84.5277 21.084 83.9537 20.93 83.6457 20.622C83.3657 20.314 83.2257 19.824 83.2257 19.152C83.2257 17.584 83.8557 16.8 85.1157 16.8H87.5097C87.9857 13.72 88.7137 10.906 89.6937 8.358C90.6737 5.81 91.8497 3.78 93.2217 2.268C94.6217 0.756 96.1197 0 97.7157 0C98.8917 0 99.8157 0.518 100.488 1.554C101.16 2.59 101.496 3.892 101.496 5.46C101.496 9.8 99.6757 13.58 96.0357 16.8H100.74C101.188 16.8 101.51 16.898 101.706 17.094C101.902 17.29 102 17.654 102 18.186C102 20.118 100.418 21.084 97.2537 21.084H92.1297ZM96.5817 4.032C96.1617 4.032 95.6857 4.564 95.1537 5.628C94.6497 6.664 94.1597 8.12 93.6837 9.996C93.2357 11.844 92.8577 13.902 92.5497 16.17C94.2017 14.742 95.4337 13.146 96.2457 11.382C97.0857 9.59 97.5057 7.966 97.5057 6.51C97.5057 4.858 97.1977 4.032 96.5817 4.032Z" fill="#0B7BFF"/>
<path d="M80.3659 14.322C79.1899 14.322 78.3079 14.056 77.7199 13.524C77.1319 12.964 76.8379 12.194 76.8379 11.214C76.8379 10.234 77.2159 9.42202 77.9719 8.77802C78.7559 8.10602 79.7219 7.77002 80.8699 7.77002C81.9059 7.77002 82.7459 8.02202 83.3899 8.52602C84.0339 9.03002 84.3559 9.74402 84.3559 10.668C84.3559 11.788 83.9919 12.684 83.2639 13.356C82.5359 14 81.5699 14.322 80.3659 14.322Z" fill="white"/>
<path d="M53.5417 14.322C52.3657 14.322 51.4837 14.056 50.8957 13.524C50.3077 12.964 50.0137 12.194 50.0137 11.214C50.0137 10.234 50.3917 9.42202 51.1477 8.77802C51.9317 8.10602 52.8977 7.77002 54.0457 7.77002C55.0817 7.77002 55.9217 8.02202 56.5657 8.52602C57.2097 9.03002 57.5317 9.74402 57.5317 10.668C57.5317 11.788 57.1677 12.684 56.4397 13.356C55.7117 14 54.7457 14.322 53.5417 14.322Z" fill="#0B7BFF"/>
</svg>
