<svg width="50" height="49" viewBox="0 0 50 49" fill="none" xmlns="http://www.w3.org/2000/svg">
<path d="M6.25407 8.11865C6.27335 5.80877 8.18361 3.94458 10.5235 3.95315C12.8805 3.96173 14.7908 5.86984 14.7768 8.20329C14.764 10.4885 12.8366 12.3624 10.4924 12.3688C8.15254 12.3763 6.23371 10.4521 6.25407 8.11865Z" fill="white"/>
<path d="M22.3477 4.21272C22.3402 1.88141 24.2087 0.0140049 26.5614 7.70547e-05C28.9473 -0.0138508 30.8822 1.86212 30.8737 4.18057C30.8651 6.49688 28.9666 8.36964 26.6214 8.37393C24.2601 8.37821 22.3552 6.52367 22.3477 4.21272Z" fill="white"/>
<path d="M39.0926 3.73438C41.4732 3.73438 43.3684 5.60821 43.3556 7.94701C43.3427 10.2344 41.4142 12.1018 39.0679 12.0986C36.7163 12.0954 34.7589 10.1583 34.7974 7.86988C34.8349 5.55464 36.7248 3.73438 39.0926 3.73438Z" fill="white"/>
<g filter="url(#filter0_d_3_2767)">
<path d="M49.7527 22.9565C49.6177 25.937 49.171 28.8554 47.7525 31.5264C46.1872 34.4759 43.9673 36.8682 41.2471 38.7903C40.8121 39.0978 40.6504 39.4245 40.6536 39.9334C40.6664 41.9562 41.1753 43.845 42.1342 45.616C42.5895 46.457 42.6345 47.2938 42.0742 48.0866C41.5149 48.8773 40.7178 49.159 39.7708 48.9587C37.3773 48.4541 35.166 47.4695 33.0007 46.367C31.6176 45.6631 30.2934 44.8553 29.0335 43.9489C28.7388 43.7368 28.456 43.664 28.0971 43.6832C24.7747 43.8622 21.4588 43.8236 18.2029 43.0447C13.6518 41.9573 9.51625 40.017 6.09964 36.7611C2.30162 33.1431 0.262801 28.6615 0.0163853 23.4322C-0.12075 20.5127 0.595998 17.7667 2.42805 15.4054C3.37621 14.183 4.73471 13.6537 6.18749 13.3334C8.15025 12.9006 10.0862 12.9531 11.9311 13.8273C13.25 14.453 14.0032 15.4301 13.8778 16.9996C13.715 19.0459 13.6871 21.1019 14.1189 23.1247C14.7146 25.9188 15.7066 28.5308 17.8365 30.56C18.5929 31.281 19.4607 31.8371 20.4775 32.1285C20.6307 32.1724 20.7871 32.2196 20.9446 32.2324C21.3174 32.2635 21.7867 32.3417 21.972 31.9817C22.137 31.6603 21.7053 31.4514 21.5006 31.2296C19.7446 29.3354 18.7376 27.0491 18.0701 24.5999C17.273 21.6762 17.0234 18.7042 17.5066 15.699C17.9715 12.8084 19.4468 10.6057 22.2613 9.61894C25.1401 8.6097 27.9471 8.97826 30.2912 11.0182C31.9037 12.4206 32.3461 14.3898 32.1276 16.4832C31.8533 19.0995 31.7001 21.7083 32.3258 24.2989C32.7447 26.0334 33.4154 27.6555 34.55 29.0536C35.2721 29.9429 36.1784 30.5943 37.2391 31.025C37.7469 31.2307 38.2719 31.2842 38.8119 31.1503C39.1515 31.0657 39.2222 30.8986 39.0058 30.6211C38.9512 30.5504 38.8965 30.4764 38.8279 30.4218C37.2273 29.1244 36.4934 27.3073 35.8581 25.4378C35.1574 23.3743 34.7642 21.269 35.0599 19.0759C35.542 15.4943 38.2194 13.1245 41.8471 13.0763C43.9427 13.0484 45.8487 13.5262 47.3122 15.1472C48.4092 16.3611 48.9139 17.8707 49.3242 19.4091C49.6338 20.5662 49.8063 21.7501 49.7527 22.9565Z" fill="#1448FF"/>
<path d="M49.7527 22.9565C49.6177 25.937 49.171 28.8554 47.7525 31.5264C46.1872 34.4759 43.9673 36.8682 41.2471 38.7903C40.8121 39.0978 40.6504 39.4245 40.6536 39.9334C40.6664 41.9562 41.1753 43.845 42.1342 45.616C42.5895 46.457 42.6345 47.2938 42.0742 48.0866C41.5149 48.8773 40.7178 49.159 39.7708 48.9587C37.3773 48.4541 35.166 47.4695 33.0007 46.367C31.6176 45.6631 30.2934 44.8553 29.0335 43.9489C28.7388 43.7368 28.456 43.664 28.0971 43.6832C24.7747 43.8622 21.4588 43.8236 18.2029 43.0447C13.6518 41.9573 9.51625 40.017 6.09964 36.7611C2.30162 33.1431 0.262801 28.6615 0.0163853 23.4322C-0.12075 20.5127 0.595998 17.7667 2.42805 15.4054C3.37621 14.183 4.73471 13.6537 6.18749 13.3334C8.15025 12.9006 10.0862 12.9531 11.9311 13.8273C13.25 14.453 14.0032 15.4301 13.8778 16.9996C13.715 19.0459 13.6871 21.1019 14.1189 23.1247C14.7146 25.9188 15.7066 28.5308 17.8365 30.56C18.5929 31.281 19.4607 31.8371 20.4775 32.1285C20.6307 32.1724 20.7871 32.2196 20.9446 32.2324C21.3174 32.2635 21.7867 32.3417 21.972 31.9817C22.137 31.6603 21.7053 31.4514 21.5006 31.2296C19.7446 29.3354 18.7376 27.0491 18.0701 24.5999C17.273 21.6762 17.0234 18.7042 17.5066 15.699C17.9715 12.8084 19.4468 10.6057 22.2613 9.61894C25.1401 8.6097 27.9471 8.97826 30.2912 11.0182C31.9037 12.4206 32.3461 14.3898 32.1276 16.4832C31.8533 19.0995 31.7001 21.7083 32.3258 24.2989C32.7447 26.0334 33.4154 27.6555 34.55 29.0536C35.2721 29.9429 36.1784 30.5943 37.2391 31.025C37.7469 31.2307 38.2719 31.2842 38.8119 31.1503C39.1515 31.0657 39.2222 30.8986 39.0058 30.6211C38.9512 30.5504 38.8965 30.4764 38.8279 30.4218C37.2273 29.1244 36.4934 27.3073 35.8581 25.4378C35.1574 23.3743 34.7642 21.269 35.0599 19.0759C35.542 15.4943 38.2194 13.1245 41.8471 13.0763C43.9427 13.0484 45.8487 13.5262 47.3122 15.1472C48.4092 16.3611 48.9139 17.8707 49.3242 19.4091C49.6338 20.5662 49.8063 21.7501 49.7527 22.9565Z" fill="url(#paint0_linear_3_2767)"/>
</g>
<defs>
<filter id="filter0_d_3_2767" x="-0.2" y="9.07812" width="50.1625" height="40.4428" filterUnits="userSpaceOnUse" color-interpolation-filters="sRGB">
<feFlood flood-opacity="0" result="BackgroundImageFix"/>
<feColorMatrix in="SourceAlpha" type="matrix" values="0 0 0 0 0 0 0 0 0 0 0 0 0 0 0 0 0 0 127 0" result="hardAlpha"/>
<feOffset dy="0.3"/>
<feGaussianBlur stdDeviation="0.1"/>
<feComposite in2="hardAlpha" operator="out"/>
<feColorMatrix type="matrix" values="0 0 0 0 0 0 0 0 0 0 0 0 0 0 0 0 0 0 0.75 0"/>
<feBlend mode="normal" in2="BackgroundImageFix" result="effect1_dropShadow_3_2767"/>
<feBlend mode="normal" in="SourceGraphic" in2="effect1_dropShadow_3_2767" result="shape"/>
</filter>
<linearGradient id="paint0_linear_3_2767" x1="46.5" y1="14" x2="23.5" y2="47.5" gradientUnits="userSpaceOnUse">
<stop stop-color="#50D5FF"/>
<stop offset="1" stop-color="#50D5FF" stop-opacity="0"/>
</linearGradient>
</defs>
</svg>
