<svg width="134" height="50" viewBox="0 0 134 50" fill="none" xmlns="http://www.w3.org/2000/svg">
<path d="M65.8372 25.24C66.6805 25.24 67.2855 25.4233 67.6522 25.79C68.0555 26.1567 68.2572 26.6333 68.2572 27.22C68.2572 28.1733 67.9638 29.0167 67.3772 29.75C66.8272 30.4833 65.9472 30.8683 64.7372 30.905C61.8405 30.9417 59.2372 30.7217 56.9272 30.245C54.3605 35.7083 51.2622 40.255 47.6322 43.885C44.0388 47.4783 40.4822 49.275 36.9622 49.275C33.7355 49.275 31.3155 47.57 29.7022 44.16C28.0888 40.7133 27.1722 36.1117 26.9522 30.355C24.7522 36.735 22.2588 41.4833 19.4722 44.6C16.7222 47.7167 13.7888 49.275 10.6722 49.275C7.15217 49.275 4.49384 47.0933 2.69717 42.73C0.900502 38.33 0.00216834 32.4267 0.00216834 25.02C0.00216834 19.63 0.478835 13.7083 1.43217 7.255C1.68884 5.42166 2.14717 4.15666 2.80717 3.46C3.50384 2.72666 4.5855 2.36 6.05217 2.36C7.15217 2.36 7.9955 2.59833 8.58217 3.075C9.2055 3.55166 9.51717 4.43166 9.51717 5.715C9.51717 5.97166 9.4805 6.46666 9.40717 7.2C8.30717 14.7167 7.75717 21.115 7.75717 26.395C7.75717 31.3083 8.17884 35.1033 9.02217 37.78C9.8655 40.4567 11.0022 41.795 12.4322 41.795C13.7155 41.795 15.2555 40.4567 17.0522 37.78C18.8855 35.0667 20.7005 31.07 22.4972 25.79C24.2938 20.4733 25.8155 14.1483 27.0622 6.815C27.3555 5.12833 27.8872 3.97333 28.6572 3.35C29.4638 2.69 30.5455 2.36 31.9022 2.36C33.0388 2.36 33.8638 2.61666 34.3772 3.13C34.9272 3.60666 35.2022 4.34 35.2022 5.33C35.2022 5.91666 35.1655 6.375 35.0922 6.705C34.0655 12.6817 33.5522 18.6583 33.5522 24.635C33.5522 28.705 33.6805 31.95 33.9372 34.37C34.2305 36.79 34.7622 38.6417 35.5322 39.925C36.3388 41.1717 37.4938 41.795 38.9972 41.795C40.7572 41.795 42.7188 40.475 44.8822 37.835C47.0455 35.1583 49.0255 31.84 50.8222 27.88C48.5855 26.4867 46.8988 24.69 45.7622 22.49C44.6255 20.2533 44.0572 17.6867 44.0572 14.79C44.0572 11.8933 44.4972 9.455 45.3772 7.475C46.2938 5.45833 47.5222 3.955 49.0622 2.965C50.6388 1.975 52.3805 1.48 54.2872 1.48C56.6338 1.48 58.4855 2.32333 59.8422 4.01C61.2355 5.69667 61.9322 8.00667 61.9322 10.94C61.9322 15.0833 61.0338 19.685 59.2372 24.745C61.1072 25.075 63.3072 25.24 65.8372 25.24ZM49.6122 14.405C49.6122 17.9983 50.7672 20.6567 53.0772 22.38C54.5072 18.2733 55.2222 14.8817 55.2222 12.205C55.2222 10.665 55.0205 9.54667 54.6172 8.85C54.2138 8.11666 53.6638 7.75 52.9672 7.75C51.9772 7.75 51.1705 8.33666 50.5472 9.51C49.9238 10.6467 49.6122 12.2783 49.6122 14.405ZM70.116 19.74C68.576 19.74 67.421 19.3917 66.651 18.695C65.881 17.9617 65.496 16.9533 65.496 15.67C65.496 14.3867 65.991 13.3233 66.981 12.48C68.0077 11.6 69.2727 11.16 70.776 11.16C72.1327 11.16 73.2327 11.49 74.076 12.15C74.9193 12.81 75.341 13.745 75.341 14.955C75.341 16.4217 74.8643 17.595 73.911 18.475C72.9577 19.3183 71.6927 19.74 70.116 19.74ZM69.676 49.275C67.2927 49.275 65.551 48.4317 64.451 46.745C63.3877 45.0583 62.856 42.8217 62.856 40.035C62.856 38.385 63.0577 36.2767 63.461 33.71C63.901 31.1067 64.451 28.6867 65.111 26.45C65.441 25.2767 65.881 24.47 66.431 24.03C66.981 23.59 67.861 23.37 69.071 23.37C70.941 23.37 71.876 23.9933 71.876 25.24C71.876 26.1567 71.5277 28.2833 70.831 31.62C69.951 35.6533 69.511 38.385 69.511 39.815C69.511 40.915 69.6577 41.7583 69.951 42.345C70.2443 42.9317 70.7393 43.225 71.436 43.225C72.096 43.225 72.921 42.7667 73.911 41.85C74.901 40.9333 76.221 39.485 77.871 37.505C78.311 36.9917 78.806 36.735 79.356 36.735C79.8327 36.735 80.1993 36.955 80.456 37.395C80.7493 37.835 80.896 38.44 80.896 39.21C80.896 40.6767 80.5477 41.8133 79.851 42.62C76.221 47.0567 72.8293 49.275 69.676 49.275ZM100.976 36.735C101.453 36.735 101.819 36.955 102.076 37.395C102.369 37.835 102.516 38.44 102.516 39.21C102.516 40.6767 102.168 41.8133 101.471 42.62C99.8945 44.5633 98.1712 46.1583 96.3012 47.405C94.4312 48.6517 92.2862 49.275 89.8662 49.275C82.3862 49.275 78.6462 44.0133 78.6462 33.49C78.6462 31.8767 78.7012 30.245 78.8112 28.595H76.6662C75.5662 28.595 74.8145 28.3933 74.4112 27.99C74.0445 27.5867 73.8612 26.945 73.8612 26.065C73.8612 24.0117 74.6862 22.985 76.3362 22.985H79.4712C80.0945 18.9517 81.0478 15.2667 82.3312 11.93C83.6145 8.59333 85.1545 5.935 86.9512 3.955C88.7845 1.975 90.7462 0.984999 92.8362 0.984999C94.3762 0.984999 95.5862 1.66333 96.4662 3.02C97.3462 4.37667 97.7862 6.08167 97.7862 8.135C97.7862 13.8183 95.4028 18.7683 90.6362 22.985H96.7962C97.3828 22.985 97.8045 23.1133 98.0612 23.37C98.3178 23.6267 98.4462 24.1033 98.4462 24.8C98.4462 27.33 96.3745 28.595 92.2312 28.595H85.5212C85.4478 30.4283 85.4112 31.8583 85.4112 32.885C85.4112 36.6983 85.8512 39.375 86.7312 40.915C87.6478 42.455 89.0778 43.225 91.0212 43.225C92.5978 43.225 93.9912 42.7483 95.2012 41.795C96.4112 40.8417 97.8412 39.4117 99.4912 37.505C99.9312 36.9917 100.426 36.735 100.976 36.735ZM91.3512 6.265C90.8012 6.265 90.1778 6.96167 89.4812 8.355C88.8212 9.71167 88.1795 11.6183 87.5562 14.075C86.9695 16.495 86.4745 19.19 86.0712 22.16C88.2345 20.29 89.8478 18.2 90.9112 15.89C92.0112 13.5433 92.5612 11.4167 92.5612 9.51C92.5612 7.34667 92.1578 6.265 91.3512 6.265ZM105.243 19.74C103.703 19.74 102.548 19.3917 101.778 18.695C101.008 17.9617 100.623 16.9533 100.623 15.67C100.623 14.3867 101.118 13.3233 102.108 12.48C103.135 11.6 104.4 11.16 105.903 11.16C107.26 11.16 108.36 11.49 109.203 12.15C110.046 12.81 110.468 13.745 110.468 14.955C110.468 16.4217 109.991 17.595 109.038 18.475C108.085 19.3183 106.82 19.74 105.243 19.74ZM104.803 49.275C102.42 49.275 100.678 48.4317 99.5779 46.745C98.5146 45.0583 97.9829 42.8217 97.9829 40.035C97.9829 38.385 98.1846 36.2767 98.5879 33.71C99.0279 31.1067 99.5779 28.6867 100.238 26.45C100.568 25.2767 101.008 24.47 101.558 24.03C102.108 23.59 102.988 23.37 104.198 23.37C106.068 23.37 107.003 23.9933 107.003 25.24C107.003 26.1567 106.655 28.2833 105.958 31.62C105.078 35.6533 104.638 38.385 104.638 39.815C104.638 40.915 104.785 41.7583 105.078 42.345C105.371 42.9317 105.866 43.225 106.563 43.225C107.223 43.225 108.048 42.7667 109.038 41.85C110.028 40.9333 111.348 39.485 112.998 37.505C113.438 36.9917 113.933 36.735 114.483 36.735C114.96 36.735 115.326 36.955 115.583 37.395C115.876 37.835 116.023 38.44 116.023 39.21C116.023 40.6767 115.675 41.8133 114.978 42.62C111.348 47.0567 107.956 49.275 104.803 49.275ZM120.648 28.595C120.575 30.4283 120.538 31.8583 120.538 32.885C120.538 35.525 120.666 37.5967 120.923 39.1C121.216 40.5667 121.675 41.63 122.298 42.29C122.958 42.9133 123.856 43.225 124.993 43.225C125.58 43.225 126.276 43.0417 127.083 42.675C127.89 42.3083 128.623 41.8317 129.283 41.245C129.686 40.8783 130.09 40.695 130.493 40.695C130.933 40.695 131.281 40.9517 131.538 41.465C131.831 41.9417 131.978 42.5283 131.978 43.225C131.978 43.9217 131.831 44.6 131.538 45.26C131.281 45.92 130.878 46.47 130.328 46.91C128.421 48.4867 126.258 49.275 123.838 49.275C120.355 49.275 117.806 47.8267 116.193 44.93C114.58 41.9967 113.773 38.1833 113.773 33.49C113.773 31.8767 113.828 30.245 113.938 28.595H111.793C110.693 28.595 109.941 28.3933 109.538 27.99C109.171 27.5867 108.988 26.945 108.988 26.065C108.988 24.0117 109.813 22.985 111.463 22.985H114.598C115.221 18.9517 116.175 15.2667 117.458 11.93C118.741 8.59333 120.281 5.935 122.078 3.955C123.911 1.975 125.873 0.984999 127.963 0.984999C129.503 0.984999 130.713 1.66333 131.593 3.02C132.473 4.37667 132.913 6.08167 132.913 8.135C132.913 13.8183 130.53 18.7683 125.763 22.985H131.923C132.51 22.985 132.931 23.1133 133.188 23.37C133.445 23.6267 133.573 24.1033 133.573 24.8C133.573 27.33 131.501 28.595 127.358 28.595H120.648ZM126.478 6.265C125.928 6.265 125.305 6.96167 124.608 8.355C123.948 9.71167 123.306 11.6183 122.683 14.075C122.096 16.495 121.601 19.19 121.198 22.16C123.361 20.29 124.975 18.2 126.038 15.89C127.138 13.5433 127.688 11.4167 127.688 9.51C127.688 7.34667 127.285 6.265 126.478 6.265Z" fill="white"/>
</svg>
