<svg width="50" height="50" viewBox="0 0 60 60" fill="none" xmlns="http://www.w3.org/2000/svg">
<path d="M50 0H10C4.485 0 0 4.485 0 10V40C0 45.515 4.485 50 10 50H17.3075L26.68 57.8925C27.635 58.74 28.8325 59.16 30.0225 59.16C31.1925 59.16 32.35 58.7525 33.2525 57.95L42.8725 50H50.0025C55.5175 50 60.0025 45.515 60.0025 40V10C60.0025 4.485 55.515 0 50 0ZM17.5 30C15.43 30 13.75 28.32 13.75 26.25C13.75 24.18 15.43 22.5 17.5 22.5C19.57 22.5 21.25 24.18 21.25 26.25C21.25 28.32 19.57 30 17.5 30ZM30 30C27.93 30 26.25 28.32 26.25 26.25C26.25 24.18 27.93 22.5 30 22.5C32.07 22.5 33.75 24.18 33.75 26.25C33.75 28.32 32.07 30 30 30ZM42.5 30C40.43 30 38.75 28.32 38.75 26.25C38.75 24.18 40.43 22.5 42.5 22.5C44.57 22.5 46.25 24.18 46.25 26.25C46.25 28.32 44.57 30 42.5 30Z" fill="#2C2F36"/>
</svg>
