<svg width="84" height="84" viewBox="0 0 84 84" fill="none" xmlns="http://www.w3.org/2000/svg">
<path d="M70 69.125C70 70.1527 69.5861 71.1383 68.8493 71.865C68.1126 72.5917 67.1133 73 66.0714 73H18.9286C17.8866 73 16.8874 72.5917 16.1507 71.865C15.4139 71.1383 15 70.1527 15 69.125C15 62.9587 17.4834 57.045 21.9039 52.6848C26.3244 48.3245 32.3199 45.875 38.5714 45.875H46.4286C52.6801 45.875 58.6756 48.3245 63.0961 52.6848C67.5166 57.045 70 62.9587 70 69.125ZM42.5 11C39.392 11 36.3538 11.9091 33.7696 13.6122C31.1854 15.3154 29.1713 17.7362 27.9819 20.5684C26.7925 23.4007 26.4813 26.5172 27.0877 29.5239C27.694 32.5306 29.1906 35.2924 31.3883 37.4602C33.586 39.6279 36.386 41.1041 39.4343 41.7022C42.4826 42.3002 45.6422 41.9933 48.5136 40.8201C51.385 39.647 53.8392 37.6603 55.5659 35.1113C57.2927 32.5624 58.2143 29.5656 58.2143 26.5C58.2143 22.3891 56.5587 18.4467 53.6117 15.5398C50.6647 12.633 46.6677 11 42.5 11Z" fill="#2C2F36"/>
</svg>
