<svg width="60" height="60" viewBox="0 0 60 60" fill="none" xmlns="http://www.w3.org/2000/svg">
<g clip-path="url(#clip0_930_34898)">
<path d="M25 57.5C25 58.8825 23.8825 60 22.5 60H12.5C5.6075 60 0 54.3925 0 47.5V12.5C0 5.6075 5.6075 0 12.5 0H32.5C39.3925 0 45 5.6075 45 12.5V17.5C45 18.8825 43.8825 20 42.5 20C41.1175 20 40 18.8825 40 17.5V12.5C40 8.365 36.635 5 32.5 5H12.5C8.365 5 5 8.365 5 12.5V47.5C5 51.635 8.365 55 12.5 55H22.5C23.8825 55 25 56.1175 25 57.5ZM35 15C35 13.6175 33.8825 12.5 32.5 12.5H12.5C11.1175 12.5 10 13.6175 10 15C10 16.3825 11.1175 17.5 12.5 17.5H32.5C33.8825 17.5 35 16.3825 35 15ZM25 27.5C25 26.1175 23.8825 25 22.5 25H12.5C11.1175 25 10 26.1175 10 27.5C10 28.8825 11.1175 30 12.5 30H22.5C23.8825 30 25 28.8825 25 27.5ZM12.5 37.5C11.1175 37.5 10 38.6175 10 40C10 41.3825 11.1175 42.5 12.5 42.5H17.5C18.8825 42.5 20 41.3825 20 40C20 38.6175 18.8825 37.5 17.5 37.5H12.5ZM60 42.5C60 52.1475 52.1475 60 42.5 60C32.8525 60 25 52.1475 25 42.5C25 32.8525 32.8525 25 42.5 25C52.1475 25 60 32.8525 60 42.5ZM55 42.5C55 35.6075 49.3925 30 42.5 30C35.6075 30 30 35.6075 30 42.5C30 49.3925 35.6075 55 42.5 55C49.3925 55 55 49.3925 55 42.5Z" fill="white"/>
<path d="M40.3515 36.1721C39.7328 36.5294 39.2266 36.9883 38.8393 37.5495L38.8392 37.5494L38.8341 37.5573C38.6367 37.859 38.5815 38.2001 38.6583 38.5544C38.7412 38.9374 38.9775 39.2198 39.3389 39.371L39.3389 39.371L39.3428 39.3726C39.6352 39.491 39.9395 39.4957 40.2379 39.3915C40.5328 39.2886 40.7721 39.0991 40.9528 38.839L40.953 38.8387C41.1127 38.6084 41.3228 38.4122 41.5893 38.2508C41.8241 38.1087 42.1398 38.025 42.5587 38.025C43.1666 38.025 43.5915 38.1911 43.8845 38.4797C44.19 38.7805 44.3438 39.1502 44.3438 39.6155C44.3438 39.998 44.2285 40.3592 43.9852 40.7069C43.7232 41.0814 43.3386 41.5001 42.8218 41.9628C42.3744 42.3538 42.0259 42.7453 41.7912 43.1394C41.5544 43.5369 41.4039 43.9854 41.3346 44.4791L41.3346 44.4791L41.3342 44.4822C41.284 44.8629 41.3726 45.2161 41.6196 45.5058L41.905 45.2625L41.6196 45.5058C41.8694 45.7988 42.2093 45.9375 42.5966 45.9375C42.947 45.9375 43.2596 45.8135 43.5167 45.5747L43.5167 45.5747C43.7697 45.3397 43.922 45.0424 43.9719 44.6984C44.0148 44.412 44.1098 44.1658 44.2529 43.9533C44.4068 43.7249 44.6925 43.4037 45.1292 42.9839C45.7153 42.4295 46.1587 41.8856 46.4427 41.3509C46.7327 40.8051 46.875 40.2028 46.875 39.5514C46.875 38.478 46.4963 37.548 45.7466 36.7818C44.9756 35.9938 43.8935 35.625 42.5587 35.625C41.7312 35.625 40.9911 35.8028 40.3515 36.1721ZM40.3515 36.1721L40.539 36.4969M40.3515 36.1721L40.539 36.4969M40.539 36.4969C39.9653 36.8281 39.5016 37.25 39.1479 37.7625L40.539 36.4969ZM43.761 47.7451C43.4317 47.4178 43.0246 47.25 42.5604 47.25C42.0967 47.25 41.6895 47.4168 41.3592 47.7422L43.495 49.8656L43.7581 50.1328C44.0889 49.8068 44.2601 49.4021 44.2601 48.9392C44.2601 48.4768 44.09 48.072 43.761 47.7451ZM43.761 47.7451L43.4966 48.011L43.761 47.7451C43.761 47.7451 43.761 47.7451 43.761 47.7451ZM41.3564 50.13C41.6856 50.4572 42.0928 50.625 42.557 50.625L41.6207 49.864L41.3564 50.1299C41.3564 50.1299 41.3564 50.1299 41.3564 50.13Z" fill="white" stroke="white" stroke-width="0.75"/>
</g>
<defs>
<clipPath id="clip0_930_34898">
<rect width="60" height="60" fill="white"/>
</clipPath>
</defs>
</svg>
