<svg width="66" height="34" viewBox="0 0 66 34" fill="none" xmlns="http://www.w3.org/2000/svg">
<path fill-rule="evenodd" clip-rule="evenodd" d="M24.2395 13.608C23.7236 14.0923 23.1352 14.6696 22.3958 15.3973L9.76475 27.8159C7.48596 30.0564 3.976 29.8543 1.9251 27.3648C-0.125872 24.876 0.0588697 21.041 2.33766 18.8005L14.9685 6.38269C15.0395 6.31315 15.1107 6.2428 15.182 6.17246C16.5321 4.844 17.944 3.4549 19.2635 2.48463C20.7823 1.3672 22.9716 0.193096 25.7384 0.572875C28.5058 0.952412 30.3606 2.68192 31.5797 4.17533C32.6381 5.47225 33.6913 7.19933 34.6987 8.85121C34.752 8.93853 34.8053 9.02586 34.8586 9.11237L40.3794 18.1601C40.9315 19.0649 41.3712 19.7837 41.7605 20.3918C42.2757 19.9082 42.8641 19.3301 43.6042 18.6024L56.235 6.18378C58.5139 3.94327 62.0237 4.1454 64.0747 6.63495C66.1257 9.1245 65.9414 12.9587 63.6624 15.1992L51.0317 27.617C50.9606 27.6874 50.8896 27.7569 50.8178 27.8272C49.4677 29.1557 48.0563 30.5448 46.7366 31.5151C45.2178 32.6325 43.0284 33.8065 40.2617 33.4273C37.4942 33.0473 35.6394 31.3178 34.4204 29.8244C33.362 28.5275 32.3087 26.8004 31.3006 25.1485C31.2481 25.0612 31.1948 24.9738 31.1415 24.8873L25.6207 15.8404C25.0685 14.9356 24.6289 14.216 24.2395 13.608Z" fill="#2C2F36"/>
</svg>
