<svg width="60" height="61" viewBox="0 0 60 61" fill="none" xmlns="http://www.w3.org/2000/svg">
<g clip-path="url(#clip0_1674_34816)">
<mask id="mask0_1674_34816" style="mask-type:luminance" maskUnits="userSpaceOnUse" x="0" y="0" width="60" height="61">
<path d="M0 0.500004H60V60.5H0V0.500004Z" fill="white"/>
</mask>
<g mask="url(#mask0_1674_34816)">
<path d="M52.5103 21.0805C51.199 21.0805 50.0482 20.3961 49.3955 19.3637L33.7064 27.2082C33.9549 27.7039 34.0943 28.2641 34.0943 28.8559C34.0943 30.8902 32.4455 32.5391 30.4111 32.5391C28.3779 32.5391 26.7291 30.8902 26.7291 28.8559C26.7291 28.2641 26.8686 27.7051 27.117 27.2094L10.7904 19.0449C10.1846 20.252 8.93652 21.0805 7.49512 21.0805V40.3238C9.52832 40.3238 11.1783 41.9738 11.1783 44.007C11.1783 44.4688 11.0928 44.9117 10.9369 45.3195L27.117 53.4102C27.7205 52.202 28.9697 51.3734 30.4111 51.3734C31.8537 51.3734 33.1018 52.202 33.7064 53.409L49.215 45.6547C48.9666 45.159 48.8271 44.5988 48.8271 44.007C48.8271 41.9738 50.476 40.3238 52.5103 40.3238C52.7916 40.3238 53.0646 40.3555 53.3283 40.4152V20.9891C53.0646 21.0488 52.7916 21.0805 52.5103 21.0805Z" stroke="#2C2F36" stroke-width="3.37564" stroke-miterlimit="10" stroke-linecap="round" stroke-linejoin="round"/>
<path d="M11.1774 44.0092C11.1774 44.4709 11.0919 44.9139 10.936 45.3217C10.4075 46.708 9.06572 47.6924 7.49424 47.6924C5.45986 47.6924 3.81104 46.0436 3.81104 44.0092C3.81104 41.976 5.45986 40.326 7.49424 40.326C9.52744 40.326 11.1774 41.976 11.1774 44.0092Z" stroke="#2C2F36" stroke-width="3.37564" stroke-miterlimit="10" stroke-linecap="round" stroke-linejoin="round"/>
<path d="M30.4102 51.374V32.5396" stroke="#2C2F36" stroke-width="3.37564" stroke-miterlimit="10" stroke-linejoin="round"/>
<path d="M48.8253 17.4018C48.8253 18.1248 49.0339 18.7998 49.3937 19.3682L33.7046 27.2127C33.0999 26.0057 31.8519 25.1771 30.4093 25.1771C28.9679 25.1771 27.7187 26.0057 27.1151 27.2139L10.7886 19.0494C11.037 18.5537 11.1765 17.9936 11.1765 17.4018C11.1765 16.81 11.037 16.2498 10.7886 15.7541L27.1151 7.58965C27.7187 8.79785 28.9679 9.62637 30.4093 9.62637C31.8519 9.62637 33.0999 8.79785 33.7046 7.59082L49.3937 15.4354C49.0339 16.0037 48.8253 16.6787 48.8253 17.4018Z" stroke="#2C2F36" stroke-width="3.37564" stroke-miterlimit="10" stroke-linecap="round" stroke-linejoin="round"/>
<path d="M34.0937 55.059C34.0937 57.0934 32.4449 58.7422 30.4105 58.7422C28.3773 58.7422 26.7285 57.0934 26.7285 55.059C26.7285 54.4672 26.868 53.9082 27.1164 53.4125C27.7199 52.2043 28.9691 51.3758 30.4105 51.3758C31.8531 51.3758 33.1012 52.2043 33.7059 53.4113C33.9543 53.907 34.0937 54.4672 34.0937 55.059Z" stroke="#2C2F36" stroke-width="3.37564" stroke-miterlimit="10" stroke-linecap="round" stroke-linejoin="round"/>
<path d="M34.0937 28.8578C34.0937 30.8922 32.4449 32.541 30.4105 32.541C28.3773 32.541 26.7285 30.8922 26.7285 28.8578C26.7285 28.266 26.868 27.707 27.1164 27.2113C27.7199 26.0031 28.9691 25.1746 30.4105 25.1746C31.8531 25.1746 33.1012 26.0031 33.7059 27.2102C33.9543 27.7059 34.0937 28.266 34.0937 28.8578Z" stroke="#2C2F36" stroke-width="3.37564" stroke-miterlimit="10" stroke-linecap="round" stroke-linejoin="round"/>
<path d="M34.0937 5.93789C34.0937 6.52969 33.9543 7.08984 33.7059 7.58555C33.1012 8.79258 31.8531 9.62109 30.4105 9.62109C28.9691 9.62109 27.7199 8.79258 27.1164 7.58438C26.868 7.08867 26.7285 6.52969 26.7285 5.93789C26.7285 3.90352 28.3773 2.25469 30.4105 2.25469C32.4449 2.25469 34.0937 3.90352 34.0937 5.93789Z" stroke="#2C2F36" stroke-width="3.37564" stroke-miterlimit="10" stroke-linecap="round" stroke-linejoin="round"/>
<path d="M11.1774 17.3979C11.1774 17.9896 11.038 18.5498 10.7896 19.0455C10.1837 20.2525 8.93564 21.0811 7.49424 21.0811C5.45986 21.0811 3.81104 19.4322 3.81104 17.3979C3.81104 15.3635 5.45986 13.7146 7.49424 13.7146C8.93564 13.7146 10.1837 14.5432 10.7896 15.7502C11.038 16.2459 11.1774 16.8061 11.1774 17.3979Z" stroke="#2C2F36" stroke-width="3.37564" stroke-miterlimit="10" stroke-linecap="round" stroke-linejoin="round"/>
<path d="M56.1921 17.3979C56.1921 19.151 54.9675 20.6182 53.3269 20.9896C53.0632 21.0494 52.7901 21.0811 52.5089 21.0811C51.1976 21.0811 50.0468 20.3967 49.394 19.3643C49.0343 18.7959 48.8257 18.1209 48.8257 17.3979C48.8257 16.6748 49.0343 15.9998 49.394 15.4314C50.0468 14.399 51.1976 13.7146 52.5089 13.7146C54.5433 13.7146 56.1921 15.3635 56.1921 17.3979Z" stroke="#2C2F36" stroke-width="3.37564" stroke-miterlimit="10" stroke-linecap="round" stroke-linejoin="round"/>
<path d="M56.1921 44.0092C56.1921 46.0436 54.5433 47.6924 52.5089 47.6924C51.0663 47.6924 49.8183 46.8639 49.2136 45.6568C48.9651 45.1611 48.8257 44.601 48.8257 44.0092C48.8257 41.976 50.4745 40.326 52.5089 40.326C52.7901 40.326 53.0632 40.3576 53.3269 40.4174C54.9675 40.7889 56.1921 42.2572 56.1921 44.0092Z" stroke="#2C2F36" stroke-width="3.37564" stroke-miterlimit="10" stroke-linecap="round" stroke-linejoin="round"/>
</g>
</g>
<defs>
<clipPath id="clip0_1674_34816">
<rect width="60" height="60" fill="white" transform="translate(0 0.5)"/>
</clipPath>
</defs>
</svg>
